SplineFontDB: 3.2
FontName: Gyongyiras_egyedul
FullName: Gyongyiras_egyedul
FamilyName: Gyongyiras_egyedul
Weight: Medium

StartChar: uni001C
Encoding: 28 28 1
Width: 651
Flags: W
HStem: -10 20<0 651>
LayerCount: 3
Fore
SplineSet
0 10 m 1
 651 10 l 1
 651 -10 l 1
 0 -10 l 1
 0 10 l 1
EndSplineSet
EndChar

StartChar: uni001D
Encoding: 29 29 2
Width: 651
Flags: W
HStem: -10 20<0 1107>
LayerCount: 3
Fore
SplineSet
0 10 m 1
 1107 10 l 1
 1107 -10 l 1
 0 -10 l 1
 0 10 l 1
EndSplineSet
EndChar

StartChar: uni001E
Encoding: 30 30 3
Width: 651
Flags: W
HStem: -10 20<0 651> 326 11<0 651> 656 11<0 651>
LayerCount: 3
Fore
SplineSet
0 337 m 1
 651 337 l 1
 651 326 l 1
 0 326 l 1
 0 337 l 1
0 10 m 1
 651 10 l 1
 651 -10 l 1
 0 -10 l 1
 0 10 l 1
0 667 m 1
 651 667 l 1
 651 656 l 1
 0 656 l 1
 0 667 l 1
EndSplineSet
EndChar

StartChar: uni001F
Encoding: 31 31 4
Width: 651
Flags: MW
HStem: -10 20<0 1107 0 1107> 326 10 656 10
LayerCount: 3
Fore
SplineSet
0 337 m 1
 1107 337 l 1
 1107 326 l 1
 0 326 l 1
 0 337 l 1
0 10 m 1
 1107 10 l 1
 1107 -10 l 1
 0 -10 l 1
 0 10 l 1
0 667 m 1
 1107 667 l 1
 1107 656 l 1
 0 656 l 1
 0 667 l 1
EndSplineSet
EndChar

StartChar: space
Encoding: 32 32 5
Width: 651
Flags: W
HStem: -10 20<0 1107 0 1107> 326 10 656 10
LayerCount: 3
Fore
SplineSet
0 337 m 1
 1107 337 l 1
 1107 326 l 1
 0 326 l 1
 0 337 l 1
0 10 m 1
 1107 10 l 1
 1107 -10 l 1
 0 -10 l 1
 0 10 l 1
0 667 m 1
 1107 667 l 1
 1107 656 l 1
 0 656 l 1
 0 667 l 1
EndSplineSet
EndChar

StartChar: exclam
Encoding: 33 33 6
Width: 172
Flags: MW
HStem: 1 65<87 94>
VStem: 60 59<28.5 40.5 28.5 41> 70 32<146 628>
LayerCount: 3
Fore
SplineSet
60 34 m 0xc0
 60 48 67 59 77 63 c 0
 81 65 85 66 89 66 c 0
 106 66 119 49 119 32 c 0
 119 25 117 18 112 12 c 0
 106 4 98 1 90 1 c 0
 74 1 60 14 60 34 c 0xc0
70 146 m 2xa0
 70 628 l 2
 70 637 77 644 86 644 c 0
 95 644 102 637 102 628 c 2
 102 146 l 2
 102 137 95 130 86 130 c 0
 77 130 70 137 70 146 c 2xa0
EndSplineSet
EndChar

StartChar: quotedbl
Encoding: 34 34 7
Width: 397
VWidth: 0
Flags: W
HStem: 456 161<156 182 221 246>
VStem: 149 33<456 617> 214 32<456 617>
LayerCount: 3
Fore
SplineSet
152 504 m 1
 152 665 l 1
 185 665 l 1
 185 504 l 1
 152 504 l 1
217 504 m 1
 217 665 l 1
 249 665 l 1
 249 504 l 1
 217 504 l 1
EndSplineSet
EndChar

StartChar: quotesingle
Encoding: 39 39 8
Width: 332
VWidth: 0
Flags: W
HStem: 500 163
VStem: 538 32<501 661>
LayerCount: 3
Fore
SplineSet
150 502 m 1
 150 664 l 1
 182 664 l 1
 182 502 l 1
 150 502 l 1
EndSplineSet
EndChar

StartChar: plus
Encoding: 43 43 9
Width: 666
Flags: HMW
LayerCount: 3
Back
SplineSet
333 616 m 31
 333 382 333 284 333 50 c 1052
50 333 m 31
 273 333 393 333 616 333 c 1052
EndSplineSet
Fore
SplineSet
33.5 333 m 0
 33.5 341.987322834 41.0126771663 349.5 50 349.5 c 2
 316.5 349.5 l 1
 316.5 616 l 2
 316.5 624.987322834 324.012677166 632.5 333 632.5 c 0
 341.987322834 632.5 349.5 624.987322834 349.5 616 c 2
 349.5 349.5 l 1
 616 349.5 l 2
 624.987322834 349.5 632.5 341.987322834 632.5 333 c 0
 632.5 324.012677166 624.987322834 316.5 616 316.5 c 2
 349.5 316.5 l 1
 349.5 50 l 2
 349.5 41.0126771663 341.987322834 33.5 333 33.5 c 0
 324.012677166 33.5 316.5 41.0126771663 316.5 50 c 2
 316.5 316.5 l 1
 50 316.5 l 2
 41.0126771663 316.5 33.5 324.012677166 33.5 333 c 0
EndSplineSet
EndChar

StartChar: comma
Encoding: 44 44 10
Width: 172
Flags: MW
HStem: -146 224<51.5 101>
VStem: 38 79
LayerCount: 3
Fore
SplineSet
40 -122 m 0
 101 9 67 78 100 78 c 2
 101 78 l 2
 110 78 117 70 117 61 c 0
 113 -10 98 -76 70 -136 c 0
 67 -143 61 -146 56 -146 c 0
 47 -146 38 -138 38 -129 c 0
 38 -127 39 -124 40 -122 c 0
EndSplineSet
EndChar

StartChar: hyphen
Encoding: 45 45 11
Width: 450
Flags: W
HStem: 148.5 33<108.505 341.495>
VStem: 108.5 233<148.5 181.5>
LayerCount: 3
Back
SplineSet
125 165 m 25
 325 165 l 1049
EndSplineSet
Fore
SplineSet
108.5 165 m 0
 108.5 173.987322834 116.012677166 181.5 125 181.5 c 2
 325 181.5 l 2
 333.987322834 181.5 341.5 173.987322834 341.5 165 c 0
 341.5 156.012677166 333.987322834 148.5 325 148.5 c 2
 125 148.5 l 2
 116.012677166 148.5 108.5 156.012677166 108.5 165 c 0
EndSplineSet
EndChar

StartChar: period
Encoding: 46 46 12
Width: 172
Flags: MW
HStem: 1 65<87 94>
VStem: 60 59<28.5 40.5 28.5 41>
LayerCount: 3
Fore
SplineSet
60 34 m 0
 60 48 67 59 77 63 c 0
 81 65 85 66 89 66 c 0
 106 66 119 49 119 32 c 0
 119 25 117 18 112 12 c 0
 106 4 98 1 90 1 c 0
 74 1 60 14 60 34 c 0
EndSplineSet
EndChar

StartChar: zero
Encoding: 48 48 13
Width: 666
Flags: HW
VStem: 166 332<162.216 325.673 411.477 505.926>
LayerCount: 3
Back
SplineSet
331 0 m 3
 455 0 508 180 508 328 c 3
 508 480 456.00390625 666 331 666 c 3
 204 666 154 480 154 332 c 3
 154 189 206 0 331 0 c 3
EndSplineSet
Fore
SplineSet
331 -16.5 m 0
 187.083233743 -16.5 137.5 190.893082389 137.5 332 c 0
 137.5 477.969677181 185.180398267 682.5 331 682.5 c 0
 474.883142283 682.5 524.5 477.99401931 524.5 328 c 0
 524.5 181.580726101 473.541055541 -16.5 331 -16.5 c 0
331 16.5 m 0
 436.458944459 16.5 491.5 178.419273899 491.5 328 c 0
 491.5 482.00598069 437.124670217 649.5 331 649.5 c 0
 222.819601733 649.5 170.5 482.030322819 170.5 332 c 0
 170.5 187.106917611 224.916766257 16.5 331 16.5 c 0
EndSplineSet
EndChar

StartChar: one
Encoding: 49 49 14
Width: 666
Flags: HW
LayerCount: 3
Back
SplineSet
133 330 m 29
 442 656 l 29
 439 0 l 1053
EndSplineSet
Fore
SplineSet
121.649156971 318.024676934 m 0
 115.126363369 324.207324857 114.842029011 334.828049427 121.024676934 341.350843029 c 2
 430.024676934 667.350843029 l 2
 436.549324877 674.234452186 447.904917394 674.09245855 454.255402909 667.047854975 c 0
 457.101056963 663.891166455 458.513006845 658.806435041 458.499827463 655.924543472 c 2
 455.499827463 -0.0754565280325 l 2
 455.458727331 -9.06268538329 447.911772327 -16.5409275951 438.924543472 -16.4998274631 c 0
 429.937314617 -16.4587273311 422.459072405 -8.91177232723 422.500172537 0.0754565280325 c 2
 425.309612684 614.406368672 l 1
 144.975323066 318.649156971 l 2
 138.792675143 312.126363369 128.171950573 311.842029011 121.649156971 318.024676934 c 0
EndSplineSet
EndChar

StartChar: two
Encoding: 50 50 15
Width: 666
Flags: HW
LayerCount: 3
Back
SplineSet
616 80 m 30
 616 80 530 0 462 0 c 7
 361 0 329 108 228 108 c 7
 171 108 129.732421875 90 33 0 c 5
 244.661943152 282 446 292.166737953 446 487 c 7
 446 586 375 662 276 662 c 23
 190.71425006 662 124.21875 588 117 522 c 1028
EndSplineSet
Fore
SplineSet
628.093368969 91.2249911793 m 0
 634.564869859 84.2528477902 632.847718931 74.0812695585 627.784073014 68.4255620214 c 0
 625.751671757 66.5390995939 540.037256174 -16.5 462 -16.5 c 0
 347.155361487 -16.5 315.12949342 91.5 228 91.5 c 0
 176.360922418 91.5 140.578502048 77.5540758104 44.2393097295 -12.0800627815 c 0
 37.295494492 -18.5405995824 25.9712012644 -17.6861837077 20.0753706256 -10.2568979489 c 0
 15.3352645941 -4.2839308825 15.6402123785 4.35786191372 19.8036384406 9.90484939784 c 0
 237.948628774 300.54229871 429.5 305.400117586 429.5 487 c 0
 429.5 577.697106212 365.591141136 645.5 276 645.5 c 0
 200.20094572 645.5 139.735529447 578.110893831 133.402182914 520.206011244 c 0
 132.425021937 511.27196803 124.140054457 504.62065611 115.206011244 505.597817086 c 0
 106.27196803 506.574978063 99.6206561096 514.859945543 100.597817086 523.793988756 c 0
 108.701970553 597.889106169 181.2275544 678.5 276 678.5 c 0
 384.408858864 678.5 462.5 594.302893788 462.5 487 c 0
 462.5 312.210666413 312.322975014 273.781577763 147.005941579 107.032164758 c 1
 174.109542633 119.862953091 200.749434215 124.5 228 124.5 c 0
 342.87050658 124.5 374.844638513 16.5 462 16.5 c 0
 519.784500185 16.5 604.699257805 92.023057339 604.775008821 92.0933689692 c 0
 611.362100401 98.2074671228 621.979270816 97.8120827595 628.093368969 91.2249911793 c 0
EndSplineSet
EndChar

StartChar: three
Encoding: 51 51 16
Width: 666
Flags: HW
LayerCount: 3
Back
SplineSet
170 544 m 4
 179 621 233 662 306 662 c 7
 424 662 447 577.0078125 447 512 c 7
 447 442.970703125 392.003816738 357 261 357 c 5
 413 356 492 324.391601562 492 180 c 7
 492 87.994140625 443.149906367 0 323 0 c 7
 235 0 164 63 141 148 c 1028
EndSplineSet
Fore
SplineSet
168.084468855 527.611566871 m 0
 159.15791496 528.654930313 152.568203428 536.98897725 153.611566871 545.915531145 c 0
 163.598780872 631.361695379 226.047487437 678.5 306 678.5 c 0
 436.332877458 678.5 463.5 580.214177253 463.5 512 c 0
 463.5 458.434919911 433.700147641 397.246206094 369.741554986 364.37518368 c 1
 459.597367563 345.981350949 508.5 292.043005763 508.5 180 c 0
 508.5 82.3462291462 454.154893079 -16.5 323 -16.5 c 0
 226.56329191 -16.5 149.718072218 52.6098549522 125.072780269 143.69028172 c 0
 122.725336057 152.365619027 128.014944413 161.579775518 136.69028172 163.927219731 c 0
 145.365619027 166.274663943 154.579775518 160.985055587 156.927219731 152.30971828 c 0
 178.281927782 73.3901450478 243.43670809 16.5 323 16.5 c 0
 432.144919655 16.5 475.5 93.6420521038 475.5 180 c 0
 475.5 312.735071272 410.903233789 339.513437437 260.891449718 340.500357069 c 0
 252.590380143 340.554969369 245.220603496 347.195358286 244.550861383 355.70545809 c 0
 243.80673778 365.160688699 251.515533446 373.5 261 373.5 c 0
 383.450190857 373.5 430.5 451.881886187 430.5 512 c 0
 430.5 573.801447747 411.667122542 645.5 306 645.5 c 0
 239.952512563 645.5 194.401219128 610.638304621 186.388433129 542.084468855 c 0
 185.345069687 533.15791496 177.01102275 526.568203428 168.084468855 527.611566871 c 0
EndSplineSet
EndChar

StartChar: four
Encoding: 52 52 17
Width: 666
Flags: HW
LayerCount: 3
Back
SplineSet
385 667 m 25
 63 233 l 1
 620 233 l 1029
430 361 m 1033
430 361 m 25
 430 0 l 1025
EndSplineSet
Fore
SplineSet
394.831474249 680.251117466 m 0
 402.049175496 674.896048799 403.606186133 664.386226998 398.251117466 657.168525751 c 2
 95.7873725537 249.5 l 1
 620 249.5 l 2
 628.987322834 249.5 636.5 241.987322834 636.5 233 c 0
 636.5 224.012677166 628.987322834 216.5 620 216.5 c 2
 63 216.5 l 2
 59.9843920168 216.5 56.8548051904 217.378868063 54.2384754049 219.018380395 c 0
 46.2016145863 224.054646273 44.0975923107 235.214517861 49.7488825341 242.831474249 c 2
 371.748882534 676.831474249 l 2
 377.103951201 684.049175496 387.613773002 685.606186133 394.831474249 680.251117466 c 0
413.5 361 m 0
 413.5 370.108 420.892 377.5 430 377.5 c 0
 439.108 377.5 446.5 370.108 446.5 361 c 0
 446.5 351.892 439.108 344.5 430 344.5 c 0
 420.892 344.5 413.5 351.892 413.5 361 c 0
430 377.5 m 0
 438.987322834 377.5 446.5 369.987322834 446.5 361 c 2
 446.5 0 l 2
 446.5 -8.98732283373 438.987322834 -16.5 430 -16.5 c 0
 421.012677166 -16.5 413.5 -8.98732283373 413.5 0 c 2
 413.5 361 l 2
 413.5 369.987322834 421.012677166 377.5 430 377.5 c 0
EndSplineSet
EndChar

StartChar: five
Encoding: 53 53 18
Width: 666
Flags: HW
LayerCount: 3
Back
SplineSet
575 666 m 31
 444 666 351 666 220 666 c 5
 220 666 220 474 220 351 c 5
 260 403 311 430 380 430 c 31
 493 430 582 333 582 220 c 31
 582 97 481 0 358 0 c 31
 256 0 195 73 165 121 c 1028
EndSplineSet
Fore
SplineSet
591.5 666 m 0
 591.5 657.012677166 583.987322834 649.5 575 649.5 c 2
 236.5 649.5 l 1
 236.5 393.449404103 l 1
 275.602868627 428.890687016 322.4673891 446.5 380 446.5 c 0
 502.884650793 446.5 598.5 341.414058128 598.5 220 c 0
 598.5 87.570045112 489.747020904 -16.5 358 -16.5 c 0
 247.211232279 -16.5 181.963065801 62.7269569822 151.008027984 112.25501749 c 0
 146.244756409 119.87625201 148.633782969 130.228700441 156.25501749 134.991972016 c 0
 163.87625201 139.755243591 174.228700441 137.366217031 178.991972016 129.74498251 c 0
 208.036934199 83.2730430177 264.788767721 16.5 358 16.5 c 0
 472.252979096 16.5 565.5 106.429954888 565.5 220 c 0
 565.5 324.585941872 483.115349207 413.5 380 413.5 c 0
 315.800961423 413.5 270.382311165 389.434992394 233.07829582 340.939772446 c 0
 230.51480694 337.607236901 225.995831279 334.920851342 221.29454191 334.550861383 c 0
 211.839311301 333.80673778 203.5 341.515533446 203.5 351 c 2
 203.5 666 l 2
 203.5 673.08173686 210.012525015 682.5 220 682.5 c 2
 575 682.5 l 2
 583.987322834 682.5 591.5 674.987322834 591.5 666 c 0
EndSplineSet
EndChar

StartChar: six
Encoding: 54 54 19
Width: 666
Flags: HW
LayerCount: 3
Back
SplineSet
522 586 m 4
 472 653 397.125 666 333 666 c 7
 187.968968838 666 141 488.010742188 141 302 c 7
 141 201 140 204 140 204 c 7
 140 83.9958334057 244.94921875 0 333 0 c 7
 451 0 525 105.980771008 525 210 c 7
 525 314.938476562 443.004882812 389 333 389 c 7
 184.916015625 389 140 265 141 210 c 1030
EndSplineSet
Fore
SplineSet
157.585063105 315.529875783 m 1
 188.62614159 363.169419196 244.911201526 405.5 333 405.5 c 0
 450.704882783 405.5 541.5 324.812170994 541.5 210 c 0
 541.5 99.2454962608 462.336880678 -16.5 333 -16.5 c 0
 235.846697281 -16.5 123.5 74.2290940629 123.5 204 c 0
 123.5 204.548602183 123.538038997 205.524816742 123.727281682 206.73587769 c 0
 123.852508721 209.018095117 124.128572413 217.125220647 124.302292345 238.536202195 c 0
 124.418395396 252.845903268 124.5 273.174360772 124.5 302 c 0
 124.5 485.875488906 169.99744767 682.5 333 682.5 c 0
 398.905795417 682.5 480.616875999 669.041465109 535.223646369 595.868392813 c 0
 540.59882407 588.665654694 539.071130931 578.151531331 531.868392813 572.776353631 c 0
 524.665654694 567.40117593 514.151531331 568.928869069 508.776353631 576.131607187 c 0
 463.383124001 636.958534891 395.344204583 649.5 333 649.5 c 0
 209.125473792 649.5 159.912288994 498.309291069 157.585063105 315.529875783 c 1
156.664255934 204.696975957 m 0
 156.621126705 203.955153221 156.526050587 202.882317787 156.50379279 202.67875756 c 0
 157.599617543 92.4266970195 254.51342952 16.5 333 16.5 c 0
 439.663119322 16.5 508.5 112.716045755 508.5 210 c 0
 508.5 305.06478213 435.304882842 372.5 333 372.5 c 0
 196.730909754 372.5 156.611379885 259.024093944 157.497273403 210.299950426 c 0
 157.524691739 208.791941956 157.160651151 206.570363632 156.664255934 204.696975957 c 0
EndSplineSet
EndChar

StartChar: seven
Encoding: 55 55 20
Width: 666
Flags: HW
LayerCount: 3
Back
SplineSet
262 280 m 29
 508 280 l 1053
77 580 m 4
 107 618 156 664 221 664 c 31
 318 664 352 565 449 565 c 31
 526 565 576 611 620 666 c 13
 219 0 l 1053
EndSplineSet
Fore
SplineSet
245.5 280 m 0
 245.5 288.987322834 253.012677166 296.5 262 296.5 c 2
 508 296.5 l 2
 516.987322834 296.5 524.5 288.987322834 524.5 280 c 0
 524.5 271.012677166 516.987322834 263.5 508 263.5 c 2
 262 263.5 l 2
 253.012677166 263.5 245.5 271.012677166 245.5 280 c 0
66.7758692384 567.049434369 m 0
 59.721874438 572.618377632 58.4804911052 583.170135961 64.0494343687 590.224130762 c 0
 94.9980492345 629.425709592 147.787041155 680.5 221 680.5 c 0
 331.216960667 680.5 365.216493846 581.5 449 581.5 c 0
 518.425049462 581.5 563.819773733 622.187604645 607.115664644 676.307468285 c 0
 613.040563929 683.713592391 624.368118491 684.523624015 631.286562831 678.035925368 c 0
 637.311509624 672.386094678 637.439572388 662.976531147 634.135507164 657.488981422 c 2
 233.135507164 -8.51101857751 l 2
 228.499672521 -16.2104347168 218.188397562 -18.7713418061 210.488981422 -14.1355071636 c 0
 202.789565283 -9.49967252122 200.228658194 0.811602438226 204.864492836 8.51101857751 c 2
 545.791588772 574.739063199 l 1
 519.079871085 559.119724035 486.263405118 548.5 449 548.5 c 0
 338.783506154 548.5 304.783039333 647.5 221 647.5 c 0
 164.212958845 647.5 119.001950766 606.574290408 89.9505656313 569.775869238 c 0
 84.3816223678 562.721874438 73.8298640389 561.480491105 66.7758692384 567.049434369 c 0
EndSplineSet
EndChar

StartChar: eight
Encoding: 56 56 21
Width: 666
Flags: HW
LayerCount: 3
Back
SplineSet
356 0 m 31
 259 0 177 85 177 182 c 31
 177 277 259 372 354 372 c 31
 449 372 531 278 531 183 c 31
 531 87 452 0 356 0 c 31
354 665 m 31
 272 665 209 603 209 521 c 31
 209 448 281 374 354 374 c 31
 428 374 504 451 504 525 c 31
 504 609 438 665 354 665 c 31
EndSplineSet
Fore
SplineSet
354 648.5 m 4
 280.80042215 648.5 225.5 593.936726574 225.5 521 c 4
 225.5 457.465740666 290.981172172 390.5 354 390.5 c 4
 418.053606184 390.5 487.5 460.696652707 487.5 525 c 4
 487.5 598.911913563 430.532699605 648.5 354 648.5 c 4
354 681.5 m 4
 445.467300395 681.5 520.5 619.088086437 520.5 525 c 4
 520.5 464.170652368 476.894006277 403.284947133 420.839448724 374.555733963 c 5
 494.294701868 343.16294565 547.5 263.383881776 547.5 183 c 4
 547.5 78.5534314956 462.136595751 -16.5 356 -16.5 c 4
 249.401566855 -16.5 160.5 76.0301239896 160.5 182 c 4
 160.5 262.439314914 213.796771545 342.982159478 287.446875443 374.563405261 c 5
 233.444492955 402.645736633 192.499999998 461.449637599 192.5 521 c 4
 192.5 612.063273426 263.19957785 681.5 354 681.5 c 4
356 16.5 m 4
 441.863404249 16.5 514.5 95.4465685044 514.5 183 c 4
 514.5 269.751083695 438.278455668 355.5 354 355.5 c 4
 269.83470141 355.5 193.5 268.835145474 193.5 182 c 4
 193.5 93.9698760104 268.598433145 16.5 356 16.5 c 4
EndSplineSet
EndChar

StartChar: nine
Encoding: 57 57 22
Width: 666
Flags: HW
LayerCount: 3
Back
SplineSet
515 450 m 7
 515 360.949452556 421 292 330 292 c 7
 236 292 165 382 165 476 c 31
 165 582 236.978515625 666 330 666 c 7
 428.004882812 666 515 594.038129433 515 476 c 7
 512 269 l 4
 510.901901548 125 475 4 330 4 c 7
 248 4 198.386363636 47 181 92 c 1028
EndSplineSet
Fore
SplineSet
497.964478477 439.16857383 m 2
 498.066949948 446.239105325 l 1
 498.5 476.11955894 l 2
 498.5 584.666561932 419.633372788 649.5 330 649.5 c 0
 248.001868412 649.5 181.5 575.022058049 181.5 476 c 0
 181.5 389.172678398 247.287121663 308.5 330 308.5 c 0
 397.096413654 308.5 465.994667436 350.212889256 489.608731526 406.531370391 c 0
 493.923411316 416.821687696 496.793863138 427.872614062 497.964478477 439.16857383 c 2
530.941787366 437.363769333 m 2
 530.353339907 396.760894675 l 1
 528.49908832 268.817535125 l 2
 527.399206176 124.58362926 489.629876544 -12.5 330 -12.5 c 0
 241.87510905 -12.5 185.55821293 34.3812554717 165.6973528 86.0832053234 c 0
 162.4745562 94.4728151947 166.793595452 104.1798506 175.183205323 107.4026472 c 0
 183.572815195 110.6254438 193.2798506 106.306404548 196.5026472 97.9167946766 c 0
 211.214514342 59.6187445283 254.12489095 20.5 330 20.5 c 0
 460.370123456 20.5 494.40459692 125.41637074 495.50091168 269.182464875 c 2
 496.740385781 354.706177863 l 1
 458.021969098 306.345873648 393.593874111 275.5 330 275.5 c 0
 224.712878337 275.5 148.5 374.827321602 148.5 476 c 0
 148.5 588.977941951 225.955162838 682.5 330 682.5 c 0
 436.376392836 682.5 531.5 603.409696934 531.5 475.88044106 c 2
 531.172472822 453.281065808 l 2
 531.377032869 452.186766211 531.5 451.01052814 531.5 450 c 0
 531.5 446.039521438 531.287834189 441.537074648 530.941787366 437.363769333 c 2
EndSplineSet
EndChar

StartChar: colon
Encoding: 58 58 23
Width: 172
Flags: MW
HStem: 1 65<87 94> 241 65<87 94>
VStem: 60 59<28.5 40.5 28.5 41 268.5 280.5>
LayerCount: 3
Fore
SplineSet
60 34 m 0
 60 48 67 59 77 63 c 0
 81 65 85 66 89 66 c 0
 106 66 119 49 119 32 c 0
 119 25 117 18 112 12 c 0
 106 4 98 1 90 1 c 0
 74 1 60 14 60 34 c 0
60 274 m 0
 60 288 67 299 77 303 c 0
 81 305 85 306 89 306 c 0
 106 306 119 289 119 272 c 0
 119 265 117 258 112 252 c 0
 106 244 98 241 90 241 c 0
 74 241 60 254 60 274 c 0
EndSplineSet
EndChar

StartChar: semicolon
Encoding: 59 59 24
Width: 172
Flags: MW
HStem: 241 65<100 107>
VStem: 73 59<268.5 280.5 268.5 281>
LayerCount: 3
Fore
SplineSet
40 -122 m 0
 101 9 67 78 100 78 c 2
 101 78 l 2
 110 78 117 70 117 61 c 0
 113 -10 98 -76 70 -136 c 0
 67 -143 61 -146 56 -146 c 0
 47 -146 38 -138 38 -129 c 0
 38 -127 39 -124 40 -122 c 0
73 274 m 0
 73 288 80 299 90 303 c 0
 94 305 98 306 102 306 c 0
 119 306 132 289 132 272 c 0
 132 265 130 258 125 252 c 0
 119 244 111 241 103 241 c 0
 87 241 73 254 73 274 c 0
EndSplineSet
EndChar

StartChar: less
Encoding: 60 60 25
Width: 666
Flags: HW
LayerCount: 3
Back
SplineSet
616 606 m 29
 50 333 l 29
 598 60 l 1053
EndSplineSet
Fore
SplineSet
630.861582506 613.168219124 m 0
 634.766012774 605.073319742 631.263118506 595.042847761 623.168219124 591.138417494 c 2
 87.4838196286 332.76060643 l 1
 605.35745614 74.7688130581 l 2
 613.401825281 70.7613079934 616.776318123 60.6869130006 612.768813058 52.6425438598 c 0
 608.761307993 44.5981747189 598.686913001 41.2236818772 590.64254386 45.2311869419 c 2
 42.6425438598 318.231186942 l 2
 40.0784708076 319.508544503 37.3669307997 321.909430329 35.7466260218 324.687880521 c 0
 30.9686854648 332.880950143 34.289103166 343.741174353 42.831780876 347.861582506 c 2
 608.831780876 620.861582506 l 2
 616.926680258 624.766012774 626.957152239 621.263118506 630.861582506 613.168219124 c 0
EndSplineSet
EndChar

StartChar: equal
Encoding: 61 61 26
Width: 666
Flags: HMW
HStem: 456 161
VStem: 149 33 214 32
LayerCount: 3
Back
SplineSet
50 243 m 31
 270 243 396 243 616 243 c 1052
50 423 m 31
 276 423 390 423 616 423 c 1052
EndSplineSet
Fore
SplineSet
33.5 243 m 0
 33.5 251.987322834 41.0126771663 259.5 50 259.5 c 2
 616 259.5 l 2
 624.987322834 259.5 632.5 251.987322834 632.5 243 c 0
 632.5 234.012677166 624.987322834 226.5 616 226.5 c 2
 50 226.5 l 2
 41.0126771663 226.5 33.5 234.012677166 33.5 243 c 0
33.5 423 m 0
 33.5 431.987322834 41.0126771663 439.5 50 439.5 c 2
 616 439.5 l 2
 624.987322834 439.5 632.5 431.987322834 632.5 423 c 0
 632.5 414.012677166 624.987322834 406.5 616 406.5 c 2
 50 406.5 l 2
 41.0126771663 406.5 33.5 414.012677166 33.5 423 c 0
EndSplineSet
EndChar

StartChar: greater
Encoding: 62 62 27
Width: 666
Flags: HW
LayerCount: 3
Back
SplineSet
50 606 m 29
 616 333 l 29
 68 60 l 1053
EndSplineSet
Fore
SplineSet
35.1384174938 613.168219124 m 0
 39.0428477611 621.263118506 49.073319742 624.766012774 57.168219124 620.861582506 c 2
 623.168219124 347.861582506 l 2
 631.710896834 343.741174353 635.031314535 332.880950143 630.253373978 324.687880521 c 0
 628.601983311 321.856125175 625.091467291 319.095028264 623.35745614 318.231186942 c 2
 75.3574561402 45.2311869419 l 2
 67.3130869994 41.2236818772 57.2386920066 44.5981747189 53.2311869419 52.6425438598 c 0
 49.2236818772 60.6869130006 52.5981747189 70.7613079934 60.6425438598 74.7688130581 c 2
 578.516180371 332.76060643 l 1
 42.831780876 591.138417494 l 2
 34.7368814939 595.042847761 31.2339872264 605.073319742 35.1384174938 613.168219124 c 0
EndSplineSet
EndChar

StartChar: question
Encoding: 63 63 28
Width: 404
Flags: MW
HStem: 1 65<175 182> 620 32<161.5 227.5 151.5 235.5>
VStem: 44 32<461.5 505.5 461.5 514.5> 148 59<28.5 40.5 28.5 41> 162 32<133.5 224.5 133.5 231> 312 32<405 516.5>
LayerCount: 3
Fore
SplineSet
44 466 m 0xec
 44 563 105 652 198 652 c 0
 257 652 344 625 344 464 c 0
 344 327 194 311 194 138 c 0
 194 129 187 122 178 122 c 0
 169 122 162 129 162 138 c 0
 162 324 312 346 312 464 c 0
 312 569 273 620 198 620 c 0
 125 620 76 545 76 466 c 0
 76 457 69 450 60 450 c 0
 51 450 44 457 44 466 c 0xec
148 34 m 0xf4
 148 48 155 59 165 63 c 0
 169 65 173 66 177 66 c 0
 194 66 207 49 207 32 c 0
 207 25 205 18 200 12 c 0
 194 4 186 1 178 1 c 0
 162 1 148 14 148 34 c 0xf4
EndSplineSet
EndChar

StartChar: A
Encoding: 65 65 29
Width: 1033
Flags: MW
HStem: -16 32<123 184 123 194.5 812 873> 284 32<263.5 359 268 345 396 600 268 382 651 736 651 651> 644 20G<494.5 511>
VStem: -17 32 981 32
LayerCount: 3
Fore
SplineSet
498 664 m 0
 524 664 517 611 637 316 c 1
 736 316 l 2
 745 316 752 309 752 300 c 0
 752 291 745 284 736 284 c 2
 651 284 l 1
 717 127 782 16 842 16 c 0
 904 16 944 81 981 163 c 0
 984 170 990 173 995 173 c 0
 1004 173 1013 165 1013 156 c 0
 1013 154 1012 151 1011 149 c 0
 980 80 932 -16 842 -16 c 0
 761 -16 682 123 614 284 c 1
 382 284 l 1
 314 123 235 -16 154 -16 c 0
 64 -16 16 80 -15 149 c 0
 -16 151 -17 154 -17 156 c 0
 -17 165 -8 173 1 173 c 0
 6 173 12 170 15 163 c 0
 52 81 92 16 154 16 c 0
 214 16 279 127 345 284 c 1
 268 284 l 2
 259 284 252 291 252 300 c 0
 252 309 259 316 268 316 c 2
 359 316 l 1
 400 416 440 533 482 652 c 0
 484 659 491 664 498 664 c 0
396 316 m 1
 600 316 l 1
 561 413 526 515 498 597 c 1
 470 515 435 413 396 316 c 1
EndSplineSet
EndChar

StartChar: B
Encoding: 66 66 30
Width: 636
Flags: MW
HStem: -16 32<115 174 405 475.5> 320 33<316 345 316 316> 630 34<385.5 441>
VStem: -17 33 284 32<166 320 353 612 612 612> 564 32<447.5 546> 584 32<111 221.5 103 239>
LayerCount: 3
Fore
SplineSet
401 664 m 0xfa
 503 664 596 620 596 490 c 0xfc
 596 405 547 361 482 340 c 1
 557 322 616 277 616 166 c 0
 616 40 536 -16 435 -16 c 0
 367 -16 313 7 269 38 c 1
 240 5 198 -16 150 -16 c 0
 17 -16 -17 128 -17 137 c 0
 -17 147 -8 153 1 153 c 0
 8 153 14 150 16 141 c 0
 33 70 80 16 150 16 c 0
 226 16 284 86 284 166 c 2
 284 612 l 1
 225 594 196 577 181 577 c 0
 174 577 170 580 167 587 c 0
 164 596 168 606 177 609 c 0
 245 634 310 664 401 664 c 0xfa
316 621 m 1
 316 353 l 1
 438 354 564 371 564 490 c 0
 564 602 481 630 401 630 c 0
 370 630 342 627 316 621 c 1
288 64 m 1
 328 36 375 16 435 16 c 0
 516 16 584 56 584 166 c 0xfa
 584 312 456 320 345 320 c 2
 316 320 l 1
 316 166 l 2
 316 129 306 94 288 64 c 1
EndSplineSet
EndChar

StartChar: C
Encoding: 67 67 31
Width: 577
Flags: MW
HStem: -17 33<274.5 331.5> 632 34<229.5 353.5>
VStem: -16 32<298.5 412 298.5 422>
LayerCount: 3
Fore
SplineSet
-16 333 m 0
 -16 511 124 666 318 666 c 0
 404 666 491 631 552 570 c 0
 555 567 557 563 557 559 c 0
 557 550 548 541 539 541 c 0
 535 541 531 543 528 546 c 0
 469 605 389 632 318 632 c 0
 141 632 16 491 16 333 c 0
 16 264 44 174 106 112 c 0
 156 62 232 16 317 16 c 0
 402 16 478 64 528 115 c 0
 531 119 535 120 539 120 c 0
 548 120 557 111 557 102 c 0
 557 98 555 94 552 91 c 0
 450 -12 346 -17 317 -17 c 0
 223 -17 137 33 82 88 c 0
 13 157 -16 255 -16 333 c 0
EndSplineSet
EndChar

StartChar: D
Encoding: 68 68 32
Width: 686
Flags: MW
HStem: -16 32<75 120.5 75 126 395 524> 124 34<74 119> 630 32<333.5 467.5>
VStem: -16 32<53 85.5 53 95.5> 226 34<152 611 611 611> 634 32<268.5 384.5>
LayerCount: 3
Fore
SplineSet
350 662 m 0
 603 662 666 461 666 328 c 0
 666 170 621 -16 441 -16 c 0
 340 -16 286 26 236 65 c 1
 208 16 156 -16 96 -16 c 0
 34 -16 -16 18 -16 69 c 0
 -16 122 35 158 95 158 c 0
 150 158 188 139 222 116 c 1
 225 127 226 140 226 152 c 2
 226 611 l 1
 166 593 138 577 123 577 c 0
 117 577 113 580 110 587 c 0
 107 596 111 606 120 609 c 0
 188 634 257 662 350 662 c 0
250 96 m 1
 300 58 349 16 441 16 c 0
 607 16 634 209 634 328 c 0
 634 441 585 630 350 630 c 0
 317 630 288 625 260 619 c 1
 260 152 l 2
 260 132 256 114 250 96 c 1
209 85 m 1
 177 107 143 124 95 124 c 0
 53 124 16 102 16 69 c 0
 16 37 54 16 96 16 c 0
 145 16 187 44 209 85 c 1
EndSplineSet
EndChar

StartChar: E
Encoding: 69 69 33
Width: 370
Flags: MW
HStem: -16 32<133 220> 334 32<157 215 157 215> 630 32<131 176 124 178>
VStem: -16 32<126 221> 10 32<464 536.5 459 548>
LayerCount: 3
Fore
SplineSet
178 630 m 2xe8
 176 630 l 2
 86 630 42 576 42 497 c 0xe8
 42 421 104 366 210 366 c 0
 220 366 226 360 226 350 c 0
 226 340 220 334 210 334 c 0
 93 334 16 282 16 175 c 0
 16 77 90 16 176 16 c 0
 304 16 310 97 334 97 c 0
 337 97 340 96 343 94 c 0
 348 91 350 85 350 80 c 0
 350 77 350 74 348 71 c 0
 311 16 264 -16 176 -16 c 0
 71 -16 -16 59 -16 175 c 0xf0
 -16 267 32 326 110 352 c 1
 47 378 10 431 10 497 c 0
 10 599 72 662 176 662 c 1
 178 663 l 1
 220 663 276 645 308 606 c 0
 311 603 312 598 312 595 c 0
 312 586 303 578 294 578 c 0
 290 578 286 580 282 584 c 0
 256 615 212 630 178 630 c 2xe8
EndSplineSet
EndChar

StartChar: F
Encoding: 70 70 34
Width: 617
Flags: MW
HStem: -16 32<115 188 115 199> 247 33<284 284 284 316> 333 20G<126.5 133 467 473.5> 532 33<399.5 437 380 444> 630 34<132 193>
VStem: -17 33 284 32<166 247 280 570>
LayerCount: 3
Fore
SplineSet
316 166 m 2
 316 71 248 -16 150 -16 c 0
 20 -16 -17 123 -17 137 c 0
 -17 147 -8 153 1 153 c 0
 8 153 14 150 16 141 c 0
 33 70 80 16 150 16 c 0
 226 16 284 87 284 166 c 2
 284 247 l 1
 221 251 160 277 118 325 c 0
 115 328 113 333 113 336 c 0
 113 345 122 353 131 353 c 0
 135 353 138 351 142 347 c 0
 177 307 230 284 284 280 c 1
 284 591 l 1
 251 612 215 630 171 630 c 0
 93 630 58 595 13 540 c 0
 9 536 5 534 1 534 c 0
 -8 534 -17 542 -17 551 c 0
 -17 554 -16 559 -13 562 c 0
 38 624 81 664 171 664 c 0
 283 664 341 565 419 565 c 0
 455 565 502 586 568 658 c 0
 571 662 575 664 579 664 c 0
 588 664 597 656 597 647 c 0
 597 643 595 639 592 636 c 0
 523 561 469 532 419 532 c 0
 380 532 348 550 316 570 c 1
 316 280 l 1
 369 284 421 307 458 347 c 0
 461 351 465 353 469 353 c 0
 478 353 487 345 487 336 c 0
 487 332 485 328 482 325 c 0
 438 277 377 251 316 247 c 1
 316 166 l 2
EndSplineSet
EndChar

StartChar: G
Encoding: 71 71 35
Width: 812
Flags: MW
HStem: -324 32<542 562 542 583> -16 32<277 362> 332 20G<595 605> 632 34<229.5 353.5>
VStem: -16 32<298.5 412 298.5 422> 488 32<-248 -212.5 -248 -206.5> 584 32<-222 -89 -89 -89 9 162 162 162 213.5 336>
LayerCount: 3
Fore
SplineSet
-16 333 m 0
 -16 511 124 666 318 666 c 0
 404 666 491 631 552 570 c 0
 555 567 557 563 557 559 c 0
 557 550 548 541 539 541 c 0
 535 541 531 543 528 546 c 0
 469 605 389 632 318 632 c 0
 141 632 16 491 16 333 c 0
 16 264 44 174 106 112 c 0
 157 61 234 16 320 16 c 0
 419 16 584 91 584 336 c 0
 584 346 590 352 600 352 c 0
 610 352 616 346 616 336 c 2
 616 9 l 1
 656 58 705 112 763 172 c 0
 766 176 770 177 774 177 c 0
 783 177 792 168 792 159 c 0
 792 155 790 151 787 148 c 0
 720 79 661 14 616 -44 c 1
 616 -222 l 2
 616 -256 612 -324 554 -324 c 0
 527 -324 488 -309 488 -230 c 0
 488 -183 520 -117 584 -33 c 1
 584 162 l 1
 526 30 404 -16 320 -16 c 0
 231 -16 144 26 82 88 c 0
 13 157 -16 255 -16 333 c 0
584 -89 m 1
 544 -147 520 -195 520 -230 c 0
 520 -266 530 -292 554 -292 c 0
 570 -292 584 -279 584 -222 c 2
 584 -89 l 1
EndSplineSet
EndChar

StartChar: H
Encoding: 72 72 36
Width: 716
Flags: MW
HStem: -16 32<69.5 105.5 69.5 111 544.5 598.5> 630 32<504.5 538.5>
VStem: 8 34<44.5 74.5 44.5 84> 134 32<86 183 183 183 252 599 599 599> 444 32<109 395 395 395 462 560> 566 34<565.5 600.5> 664 32<84 124.5>
LayerCount: 3
Fore
SplineSet
166 252 m 1
 270 330 342 360 444 436 c 1
 444 560 l 2
 444 621 475 662 523 662 c 0
 570 662 600 639 600 583 c 0
 600 530 541 470 476 419 c 1
 476 109 l 2
 476 58 519 16 570 16 c 0
 627 16 664 48 664 120 c 0
 664 129 671 136 680 136 c 0
 689 136 696 129 696 120 c 0
 696 26 640 -16 570 -16 c 0
 501 -16 444 39 444 109 c 2
 444 395 l 1
 349 327 270 292 166 210 c 1
 166 86 l 2
 166 24 135 -16 87 -16 c 0
 24 -16 8 22 8 58 c 0
 8 110 68 173 134 226 c 1
 134 599 l 1
 13 449 l 2
 9 445 5 442 1 442 c 0
 -8 442 -17 450 -17 459 c 0
 -17 462 -16 466 -13 469 c 2
 137 656 l 2
 140 660 145 662 150 662 c 0
 158 662 166 656 166 646 c 2
 166 252 l 1
476 462 m 1
 529 505 566 548 566 583 c 0
 566 618 554 630 523 630 c 0
 486 630 476 588 476 560 c 2
 476 462 l 1
134 183 m 1
 80 136 42 91 42 58 c 0
 42 31 52 16 87 16 c 0
 124 16 134 57 134 86 c 2
 134 183 l 1
EndSplineSet
EndChar

StartChar: I
Encoding: 73 73 37
Width: 336
Flags: MW
HStem: -16 32<115 188 115 199> 642 20G<297.5 304>
VStem: -17 33 284 32<166 599 599 599>
LayerCount: 3
Fore
SplineSet
287 656 m 2
 290 660 295 662 300 662 c 0
 308 662 316 656 316 646 c 2
 316 166 l 2
 316 71 248 -16 150 -16 c 0
 17 -16 -17 128 -17 137 c 0
 -17 147 -8 153 1 153 c 0
 8 153 14 150 16 141 c 0
 33 70 80 16 150 16 c 0
 226 16 284 86 284 166 c 2
 284 599 l 1
 163 450 l 2
 159 446 155 443 151 443 c 0
 142 443 133 451 133 460 c 0
 133 463 134 467 137 470 c 2
 287 656 l 2
EndSplineSet
EndChar

StartChar: J
Encoding: 74 74 38
Width: 362
Flags: MW
HStem: -324 32<83.5 111 83.5 126> 642 20G<147.5 154>
VStem: 28 32<-242.5 -210.5 -242.5 -202.5> 134 32<-222 -80 -80 -80 15 599 599 599>
LayerCount: 3
Fore
SplineSet
166 -38 m 1
 166 -222 l 2
 166 -266 153 -324 99 -324 c 0
 56 -324 28 -287 28 -230 c 0
 28 -175 77 -98 134 -25 c 1
 134 599 l 1
 13 449 l 2
 9 445 5 442 1 442 c 0
 -8 442 -17 450 -17 459 c 0
 -17 462 -16 466 -13 469 c 2
 137 656 l 2
 140 660 145 662 150 662 c 0
 158 662 166 656 166 646 c 2
 166 15 l 1
 229 89 294 153 313 172 c 0
 316 176 320 177 324 177 c 0
 333 177 342 168 342 159 c 0
 342 155 340 151 337 148 c 0
 286 95 220 28 166 -38 c 1
60 -230 m 0
 60 -255 68 -292 99 -292 c 0
 123 -292 134 -262 134 -222 c 2
 134 -80 l 1
 91 -138 60 -191 60 -230 c 0
EndSplineSet
EndChar

StartChar: K
Encoding: 75 75 39
Width: 857
Flags: MW
HStem: -16 32<115 188 115 199 649.5 714.5> 319 34<316 371.5 316 372> 630 32<615 695>
VStem: -17 33 284 32<166 319 353 599 599 599> 786 32
LayerCount: 3
Fore
SplineSet
287 656 m 2
 290 660 295 662 300 662 c 0
 308 662 316 656 316 646 c 2
 316 353 l 1
 427 353 486 360 519 489 c 0
 544 587 569 662 661 662 c 0
 754 662 791 603 816 536 c 0
 817 534 818 532 818 530 c 0
 818 520 809 513 800 513 c 0
 794 513 789 516 786 524 c 0
 760 593 729 630 661 630 c 0
 524 630 594 394 447 336 c 1
 497 316 534 270 556 170 c 0
 585 41 619 16 680 16 c 0
 749 16 777 64 805 118 c 0
 808 124 814 127 819 127 c 0
 828 127 837 119 837 110 c 0
 837 108 836 105 835 102 c 0
 804 43 767 -16 680 -16 c 0
 586 -16 551 42 524 162 c 0
 491 312 428 319 316 319 c 1
 316 166 l 2
 316 71 248 -16 150 -16 c 0
 17 -16 -17 128 -17 137 c 0
 -17 147 -8 153 1 153 c 0
 8 153 14 150 16 141 c 0
 33 70 80 16 150 16 c 0
 226 16 284 86 284 166 c 2
 284 599 l 1
 163 450 l 2
 159 446 155 443 151 443 c 0
 142 443 133 451 133 460 c 0
 133 463 134 467 137 470 c 2
 287 656 l 2
EndSplineSet
EndChar

StartChar: L
Encoding: 76 76 40
Width: 617
Flags: MW
HStem: -16 32<75 121 75 127 392.5 469> 124 34<74 117.5> 630 32<352.5 423>
VStem: -16 32<53 85.5 53 95.5> 226 34<152 500> 512 34<495.5 537> 564 33
LayerCount: 3
Fore
SplineSet
251 99 m 1
 306 60 355 16 430 16 c 0
 508 16 548 71 564 141 c 0
 566 150 572 153 579 153 c 0
 588 153 597 147 597 137 c 0
 597 136 574 -16 430 -16 c 0
 346 -16 293 29 238 68 c 1
 210 18 158 -16 96 -16 c 0
 34 -16 -16 18 -16 69 c 0
 -16 122 35 158 95 158 c 0
 147 158 186 140 222 118 c 1
 225 129 226 140 226 152 c 2
 226 500 l 2
 226 589 299 662 388 662 c 0
 476 662 546 592 546 500 c 0
 546 491 538 484 529 484 c 0
 520 484 512 491 512 500 c 0
 512 574 458 630 388 630 c 0
 317 630 260 571 260 500 c 2
 260 152 l 2
 260 134 256 116 251 99 c 1
210 87 m 1
 176 108 140 124 95 124 c 0
 53 124 16 102 16 69 c 0
 16 37 54 16 96 16 c 0
 146 16 188 45 210 87 c 1
EndSplineSet
EndChar

StartChar: M
Encoding: 77 77 41
Width: 926
Flags: MW
HStem: -16 32<82 136 82 145 754 808> 642 20G<216 222.5 667.5 674>
VStem: -16 32<84 124.5 84 124.5> 204 32<110 593> 654 32<110 593 593 593> 874 32<84 124.5>
LayerCount: 3
Fore
SplineSet
780 -16 m 0
 710 -16 654 40 654 110 c 2
 654 593 l 1
 459 314 l 2
 456 309 451 306 445 306 c 0
 439 306 434 309 431 314 c 2
 236 593 l 1
 236 110 l 2
 236 40 180 -16 110 -16 c 0
 40 -16 -16 25 -16 120 c 0
 -16 129 -9 136 0 136 c 0
 9 136 16 129 16 120 c 0
 16 48 54 16 110 16 c 0
 162 16 204 58 204 110 c 2
 204 646 l 2
 204 656 212 662 220 662 c 0
 225 662 231 660 234 655 c 2
 445 352 l 1
 656 655 l 2
 659 660 665 662 670 662 c 0
 678 662 686 656 686 646 c 2
 686 110 l 2
 686 58 728 16 780 16 c 0
 836 16 874 48 874 120 c 0
 874 129 881 136 890 136 c 0
 899 136 906 129 906 120 c 0
 906 25 850 -16 780 -16 c 0
EndSplineSet
EndChar

StartChar: N
Encoding: 78 78 42
Width: 926
Flags: MW
HStem: -16 32<81.5 136 81.5 145> 630 32<754 808.5>
VStem: -16 32<84 124.5 84 124.5> 204 32<110 593> 654 32<53 536> 874 32<521.5 562>
LayerCount: 3
Fore
SplineSet
110 16 m 0
 162 16 204 58 204 110 c 2
 204 646 l 2
 204 656 212 662 220 662 c 0
 225 662 231 660 234 655 c 2
 654 53 l 1
 654 536 l 2
 654 606 710 662 780 662 c 0
 850 662 906 620 906 526 c 0
 906 517 899 510 890 510 c 0
 881 510 874 517 874 526 c 0
 874 598 837 630 780 630 c 0
 728 630 686 588 686 536 c 2
 686 0 l 2
 686 -10 678 -16 670 -16 c 0
 665 -16 659 -14 656 -9 c 2
 236 593 l 1
 236 110 l 2
 236 40 180 -16 110 -16 c 0
 40 -16 -16 26 -16 120 c 0
 -16 129 -9 136 0 136 c 0
 9 136 16 129 16 120 c 0
 16 48 53 16 110 16 c 0
EndSplineSet
EndChar

StartChar: O
Encoding: 79 79 43
Width: 670
Flags: MW
HStem: -17 33<274.5 360 274.5 364.5> 632 34<229.5 402>
VStem: -16 32<298.5 412 298.5 422> 617 33<298 413.5>
LayerCount: 3
Fore
SplineSet
318 666 m 0
 504 666 650 514 650 332 c 0
 650 256 622 159 555 91 c 0
 499 34 412 -17 317 -17 c 0
 223 -17 137 33 82 88 c 0
 13 157 -16 255 -16 333 c 0
 -16 511 124 666 318 666 c 0
617 332 m 0
 617 495 486 632 318 632 c 0
 141 632 16 491 16 333 c 0
 16 264 44 174 106 112 c 0
 156 62 232 16 317 16 c 0
 403 16 481 64 531 115 c 0
 591 176 617 264 617 332 c 0
EndSplineSet
EndChar

StartChar: P
Encoding: 80 80 44
Width: 636
Flags: MW
HStem: -16 32<115 188 115 199> 320 33<316 316> 630 34<385.5 447.5>
VStem: -17 33 284 32<166 320 353 612 612 612> 584 32<456.5 533.5>
LayerCount: 3
Fore
SplineSet
316 166 m 2
 316 71 248 -16 150 -16 c 0
 17 -16 -17 128 -17 137 c 0
 -17 147 -8 153 1 153 c 0
 8 153 14 150 16 141 c 0
 33 70 80 16 150 16 c 0
 226 16 284 86 284 166 c 2
 284 612 l 1
 225 594 196 577 181 577 c 0
 174 577 170 580 167 587 c 0
 164 596 168 606 177 609 c 0
 245 634 310 664 401 664 c 0
 505 664 616 602 616 490 c 0
 616 423 575 324 316 320 c 1
 316 166 l 2
316 621 m 1
 316 353 l 1
 446 355 584 382 584 490 c 0
 584 577 494 630 401 630 c 0
 370 630 342 627 316 621 c 1
EndSplineSet
EndChar

StartChar: Q
Encoding: 81 81 45
Width: 885
Flags: MW
HStem: -16 32<270 320 317 320 670.5 730> 184 32<425.5 453> 632 34<229.5 401>
VStem: -16 32<298.5 412 298.5 422> 617 32<332 336 298.5 336>
LayerCount: 3
Fore
SplineSet
617 336 m 2
 615 498 484 632 318 632 c 0
 141 632 16 491 16 333 c 0
 16 264 44 174 106 112 c 0
 156 62 232 16 317 16 c 2
 320 16 l 2
 406 17 484 66 533 117 c 1
 506 154 476 184 430 184 c 0
 421 184 414 191 414 200 c 0
 414 209 421 216 430 216 c 0
 489 216 525 182 555 142 c 1
 598 200 617 274 617 332 c 2
 617 336 l 2
318 666 m 0
 499 666 647 520 649 336 c 2
 649 332 l 2
 649 265 627 180 575 114 c 1
 609 65 641 16 700 16 c 0
 760 16 790 45 836 94 c 0
 839 98 843 100 847 100 c 0
 856 100 865 91 865 82 c 0
 865 78 863 75 860 72 c 0
 810 18 772 -16 700 -16 c 0
 626 -16 589 37 553 89 c 1
 498 34 413 -15 320 -16 c 2
 317 -16 l 2
 223 -16 137 33 82 88 c 0
 13 157 -16 255 -16 333 c 0
 -16 511 124 666 318 666 c 0
EndSplineSet
EndChar

StartChar: R
Encoding: 82 82 46
Width: 923
Flags: MW
HStem: -16 32<115 188 115 199 702 775> 320 33<316 342 316 316> 630 34<385.5 443.5>
VStem: -17 33 284 32<166 320 353 612 612 612> 570 32<121 220 121 237.5> 584 32<446.5 546> 870 33
LayerCount: 3
Fore
SplineSet
736 -16 m 0xfd
 648 -16 570 59 570 166 c 0xfd
 570 309 473 320 342 320 c 2
 316 320 l 1
 316 166 l 2
 316 71 248 -16 150 -16 c 0
 17 -16 -17 128 -17 137 c 0
 -17 147 -8 153 1 153 c 0
 8 153 14 150 16 141 c 0
 33 70 80 16 150 16 c 0
 226 16 284 86 284 166 c 2
 284 612 l 1
 225 594 196 577 181 577 c 0
 174 577 170 580 167 587 c 0
 164 596 168 606 177 609 c 0
 245 634 310 664 401 664 c 0
 506 664 616 622 616 490 c 0xfb
 616 403 558 360 485 339 c 1
 553 320 602 274 602 166 c 0
 602 76 668 16 736 16 c 0
 814 16 854 71 870 141 c 0
 872 150 878 153 885 153 c 0
 894 153 903 147 903 137 c 0
 903 136 880 -16 736 -16 c 0xfd
316 621 m 1
 316 353 l 1
 464 355 584 380 584 490 c 0xfb
 584 602 486 630 401 630 c 0
 370 630 342 627 316 621 c 1
EndSplineSet
EndChar

StartChar: S
Encoding: 83 83 47
Width: 386
Flags: MW
HStem: -16 32<137.5 217.5 137.5 225.5> 328 34<134.5 216> 630 32<115 211>
VStem: -16 32<443 520.5 443 530.5> 334 32<121.5 221.5>
LayerCount: 3
Fore
SplineSet
175 16 m 0
 260 16 334 77 334 166 c 0
 334 277 257 328 175 328 c 0
 83 328 -16 381 -16 480 c 0
 -16 581 53 662 160 662 c 0
 283 662 308 597 342 534 c 0
 343 531 345 528 345 526 c 0
 345 517 336 509 327 509 c 0
 322 509 317 512 314 518 c 0
 280 581 262 630 160 630 c 0
 70 630 16 561 16 480 c 0
 16 406 94 362 175 362 c 0
 276 362 366 295 366 166 c 0
 366 56 276 -16 175 -16 c 0
 61 -16 -5 106 -15 125 c 0
 -16 128 -17 131 -17 133 c 0
 -17 142 -8 150 1 150 c 0
 6 150 12 147 15 141 c 0
 44 86 100 16 175 16 c 0
EndSplineSet
EndChar

StartChar: T
Encoding: 84 84 48
Width: 617
Flags: MW
HStem: -16 32<115 188 115 199> 532 33<399.5 437 380 444> 630 34<132 193>
VStem: -17 33 284 32<166 569>
LayerCount: 3
Fore
SplineSet
316 166 m 2
 316 71 248 -16 150 -16 c 0
 17 -16 -17 128 -17 137 c 0
 -17 147 -8 153 1 153 c 0
 8 153 14 150 16 141 c 0
 33 70 80 16 150 16 c 0
 226 16 284 86 284 166 c 2
 284 591 l 1
 251 612 215 630 171 630 c 0
 93 630 58 595 13 540 c 0
 9 536 5 534 1 534 c 0
 -8 534 -17 542 -17 551 c 0
 -17 554 -16 559 -13 562 c 0
 38 624 81 664 171 664 c 0
 283 664 341 565 419 565 c 0
 455 565 502 586 568 658 c 0
 571 662 575 664 579 664 c 0
 588 664 597 656 597 647 c 0
 597 643 595 639 592 636 c 0
 523 561 469 532 419 532 c 0
 380 532 348 549 316 569 c 1
 316 166 l 2
EndSplineSet
EndChar

StartChar: U
Encoding: 85 85 49
Width: 941
Flags: MW
HStem: -16 32<318 423.5 698 773.5> 642 20G<147.5 154 595.5 604.5>
VStem: 134 32<222 599 599 599> 584 32<230 646>
LayerCount: 3
Fore
SplineSet
137 656 m 2
 140 660 145 662 150 662 c 0
 158 662 166 656 166 646 c 2
 166 222 l 2
 166 108 261 16 375 16 c 0
 491 16 584 113 584 230 c 2
 584 646 l 2
 584 655 591 662 600 662 c 0
 609 662 616 655 616 646 c 2
 616 202 l 2
 616 109 658 16 738 16 c 0
 809 16 829 44 892 117 c 0
 896 121 899 123 903 123 c 0
 912 123 921 115 921 106 c 0
 921 103 919 98 916 95 c 0
 847 16 821 -16 738 -16 c 0
 656 -16 611 50 593 124 c 1
 554 42 472 -16 375 -16 c 0
 243 -16 134 89 134 222 c 2
 134 599 l 1
 13 450 l 2
 9 446 5 443 1 443 c 0
 -8 443 -17 451 -17 460 c 0
 -17 463 -16 467 -13 470 c 2
 137 656 l 2
EndSplineSet
EndChar

StartChar: V
Encoding: 86 86 50
Width: 837
Flags: MW
HStem: -16 32<318 433 318 442.5> 515 33<682.5 716 679.5 744> 642 20G<147.5 154 596 604 795.5 803>
VStem: 134 32<222 599 599 599> 584 32<230 555> 784 33
LayerCount: 3
Fore
SplineSet
137 656 m 2
 140 660 145 662 150 662 c 0
 158 662 166 656 166 646 c 2
 166 222 l 2
 166 108 261 16 375 16 c 0
 491 16 584 113 584 230 c 2
 584 646 l 2
 584 657 592 662 600 662 c 0
 608 662 615 657 616 647 c 0
 621 579 661 548 698 548 c 0
 734 548 775 577 784 648 c 0
 785 658 792 662 799 662 c 0
 807 662 817 656 817 646 c 4
 817 622 790 515 698 515 c 0
 667 515 637 529 616 555 c 1
 616 230 l 2
 616 96 510 -16 375 -16 c 0
 243 -16 134 89 134 222 c 2
 134 599 l 1
 13 450 l 2
 9 446 5 443 1 443 c 0
 -8 443 -17 451 -17 460 c 0
 -17 463 -16 467 -13 470 c 2
 137 656 l 2
EndSplineSet
EndChar

StartChar: W
Encoding: 87 87 51
Width: 1219
Flags: MW
HStem: -16 32<303 406 724 828.5> 515 33<1064.5 1098 1061.5 1125.5> 642 20G<147.5 154 561.5 570.5 978 986 1177.5 1185>
VStem: 134 32<222 599 599 599> 550 32<230 646> 966 32<230 555> 1166 33
LayerCount: 3
Fore
SplineSet
1080 515 m 0
 1049 515 1019 529 998 555 c 1
 998 230 l 2
 998 101 905 -16 773 -16 c 0
 675 -16 597 48 565 135 c 1
 532 49 455 -16 357 -16 c 0
 228 -16 134 96 134 222 c 2
 134 599 l 1
 13 450 l 2
 9 446 5 443 1 443 c 0
 -8 443 -17 451 -17 460 c 0
 -17 463 -16 467 -13 470 c 2
 137 656 l 2
 140 660 145 662 150 662 c 0
 158 662 166 656 166 646 c 2
 166 222 l 2
 166 112 249 16 357 16 c 0
 468 16 550 116 550 230 c 2
 550 646 l 2
 550 655 557 662 566 662 c 0
 575 662 582 655 582 646 c 2
 582 222 l 2
 582 112 665 16 773 16 c 0
 884 16 966 116 966 230 c 2
 966 646 l 2
 966 657 974 662 982 662 c 0
 990 662 997 657 998 647 c 0
 1003 579 1043 548 1080 548 c 0
 1116 548 1157 578 1166 648 c 0
 1167 658 1174 662 1181 662 c 0
 1189 662 1199 656 1199 646 c 0
 1199 621 1171 515 1080 515 c 0
EndSplineSet
EndChar

StartChar: X
Encoding: 88 88 52
Width: 977
Flags: MW
HStem: -16 32<129 194 129 200 733 802> 642 20G<230.5 237.5>
LayerCount: 3
Fore
SplineSet
771 16 m 0
 833 16 892 63 926 119 c 0
 929 125 934 128 939 128 c 0
 948 128 957 120 957 111 c 0
 957 108 956 106 954 103 c 0
 914 36 844 -16 771 -16 c 0
 683 -16 583 89 464 258 c 1
 358 112 242 -16 158 -16 c 0
 81 -16 29 36 -14 102 c 0
 -16 105 -17 108 -17 111 c 0
 -17 120 -8 127 1 127 c 0
 6 127 11 125 14 120 c 0
 58 52 100 16 158 16 c 0
 230 16 332 131 443 288 c 1
 375 387 301 506 220 636 c 0
 218 639 217 642 217 645 c 0
 217 654 226 662 235 662 c 0
 240 662 245 660 248 654 c 0
 320 538 393 419 463 317 c 1
 534 420 609 539 681 654 c 0
 684 659 689 661 694 661 c 0
 703 661 712 654 712 645 c 0
 712 642 711 639 709 636 c 0
 665 565 579 422 484 287 c 1
 594 130 695 16 771 16 c 0
EndSplineSet
EndChar

StartChar: Y
Encoding: 89 89 53
Width: 812
Flags: MW
HStem: -324 32<533.5 561 533.5 576> -16 32<318 420> 642 20G<147.5 154 595.5 604.5>
VStem: 134 32<222 599 599 599> 478 32<-242.5 -210.5 -242.5 -202.5> 584 32<-222 -80 -80 -80 15 106 106 106 230 646>
LayerCount: 3
Fore
SplineSet
510 -230 m 0
 510 -255 518 -292 549 -292 c 0
 573 -292 584 -262 584 -222 c 2
 584 -80 l 1
 541 -138 510 -191 510 -230 c 0
616 -38 m 1
 616 -222 l 2
 616 -266 603 -324 549 -324 c 0
 506 -324 478 -287 478 -230 c 0
 478 -175 527 -98 584 -25 c 1
 584 106 l 1
 542 33 465 -16 375 -16 c 0
 243 -16 134 89 134 222 c 2
 134 599 l 1
 13 450 l 2
 9 446 5 443 1 443 c 0
 -8 443 -17 451 -17 460 c 0
 -17 463 -16 467 -13 470 c 2
 137 656 l 2
 140 660 145 662 150 662 c 0
 158 662 166 656 166 646 c 2
 166 222 l 2
 166 108 261 16 375 16 c 0
 491 16 584 113 584 230 c 2
 584 646 l 2
 584 655 591 662 600 662 c 0
 609 662 616 655 616 646 c 2
 616 15 l 1
 679 89 744 153 763 172 c 0
 766 176 770 177 774 177 c 0
 783 177 792 168 792 159 c 0
 792 155 790 151 787 148 c 0
 736 95 670 28 616 -38 c 1
EndSplineSet
EndChar

StartChar: Z
Encoding: 90 90 54
Width: 622
Flags: MW
HStem: -16 32<363.5 453 363.5 459> 82 33<155.5 201.5> 532 33<383.5 429.5> 630 34<132 221.5>
LayerCount: 3
Fore
SplineSet
414 -16 m 0
 302 -16 241 82 162 82 c 0
 125 82 78 61 12 -11 c 0
 8 -15 4 -17 0 -17 c 0
 -9 -17 -17 -9 -17 0 c 0
 -17 4 -15 8 -12 11 c 2
 465 539 l 1
 451 535 436 532 423 532 c 0
 330 532 272 630 171 630 c 0
 93 630 58 595 13 540 c 0
 9 536 5 534 1 534 c 0
 -8 534 -17 542 -17 551 c 0
 -17 554 -16 559 -13 562 c 0
 38 624 81 664 171 664 c 0
 283 664 344 565 423 565 c 0
 460 565 507 586 573 658 c 0
 577 662 581 664 585 664 c 0
 594 664 602 656 602 647 c 0
 602 643 600 639 597 636 c 2
 120 108 l 1
 134 112 149 115 162 115 c 0
 255 115 313 16 414 16 c 0
 492 16 527 52 572 107 c 0
 576 111 580 113 584 113 c 0
 593 113 602 105 602 96 c 0
 602 93 601 88 598 85 c 0
 547 23 504 -16 414 -16 c 0
EndSplineSet
EndChar

StartChar: bracketright
Encoding: 93 93 55
Width: 635
Flags: MW
HStem: -16 32<196.5 264.5 479.5 543.5> 356 34<-1.5 82 3 82 3 114 114 382 414 493> 646 20G<93.5 102.5 393.5 402.5>
VStem: 82 32<180 356 390 650> 382 32<170 356 390 650>
LayerCount: 3
Fore
SplineSet
-14 373 m 0
 -14 382 -6 390 3 390 c 2
 82 390 l 1
 82 650 l 2
 82 659 89 666 98 666 c 0
 107 666 114 659 114 650 c 2
 114 390 l 1
 382 390 l 1
 382 650 l 2
 382 659 389 666 398 666 c 0
 407 666 414 659 414 650 c 2
 414 390 l 1
 493 390 l 2
 502 390 510 382 510 373 c 0
 510 364 502 356 493 356 c 2
 414 356 l 1
 414 132 l 2
 414 83 434 16 513 16 c 0
 608 16 616 70 635 70 c 0
 641 70 651 67 651 53 c 0
 651 49 651 45 648 42 c 0
 612 -1 574 -16 513 -16 c 0
 446 -16 406 23 390 73 c 1
 356 13 292 -16 237 -16 c 0
 131 -16 82 85 82 180 c 2
 82 356 l 1
 3 356 l 2
 -6 356 -14 364 -14 373 c 0
114 180 m 2
 114 96 156 16 237 16 c 0
 299 16 382 62 382 170 c 2
 382 356 l 1
 114 356 l 1
 114 180 l 2
EndSplineSet
EndChar

StartChar: underscore
Encoding: 95 95 56
Width: 651
Flags: W
HStem: -333 11<0 651> -10 20<0 651> 326 11<0 651> 656 11<0 651>
LayerCount: 3
Fore
SplineSet
0 -322 m 1
 651 -322 l 5
 651 -333 l 5
 0 -333 l 1
 0 -322 l 1
0 337 m 1
 651 337 l 1
 651 326 l 1
 0 326 l 1
 0 337 l 1
0 10 m 1
 651 10 l 1
 651 -10 l 1
 0 -10 l 1
 0 10 l 1
0 667 m 1
 651 667 l 1
 651 656 l 1
 0 656 l 1
 0 667 l 1
EndSplineSet
EndChar

StartChar: a
Encoding: 97 97 57
Width: 499
Flags: MW
HStem: -16 32<106 185 372 415> 320 32<107 157 150 157>
VStem: -16 32<129.5 209.5 129.5 218> 294 34<130 180 180 185 184 185 298 336>
LayerCount: 3
Fore
SplineSet
-16 170 m 0
 -16 266 44 352 150 352 c 2
 157 352 l 2
 197 352 257 348 294 298 c 1
 294 336 l 2
 294 345 302 352 311 352 c 0
 320 352 328 345 328 336 c 2
 328 94 l 2
 328 53 351 16 393 16 c 0
 437 16 439 17 487 65 c 0
 490 68 494 70 498 70 c 0
 507 70 516 61 516 52 c 0
 516 48 514 44 511 41 c 0
 458 -12 447 -16 393 -16 c 0
 348 -16 314 12 301 53 c 1
 272 13 220 -16 150 -16 c 0
 40 -16 -16 74 -16 170 c 0
16 170 m 0
 16 89 62 16 150 16 c 0
 246 16 294 80 294 130 c 2
 294 180 l 2
 293 182 294 183 294 185 c 0
 290 315 207 320 157 320 c 2
 150 320 l 2
 64 320 16 249 16 170 c 0
EndSplineSet
EndChar

StartChar: b
Encoding: 98 98 58
Width: 642
Flags: MW
HStem: -16 32<210.5 292.5 210.5 303.5> 220 33<498 536.5> 332 20G<405 413> 632 32<162.5 198.5>
VStem: 92 34<179 232 337 549> 232 32<532.5 577.5 524 581> 392 34<184 253 306.5 335 335 336> 610 33
LayerCount: 3
Fore
SplineSet
6 171 m 2
 92 289 l 1
 92 549 l 2
 92 603 106 664 181 664 c 0
 253 664 264 602 264 553 c 0
 264 495 202 389 125 279 c 1
 126 179 l 2
 127 104 173 16 248 16 c 0
 337 16 392 96 392 184 c 2
 392 336 l 2
 392 347 401 352 409 352 c 0
 417 352 426 347 426 336 c 2
 426 335 l 2
 426 278 469 253 515 253 c 0
 558 253 599 275 610 313 c 0
 613 321 619 325 625 325 c 0
 634 325 643 318 643 308 c 0
 643 306 643 305 642 303 c 0
 625 247 568 220 515 220 c 0
 481 220 449 231 426 253 c 1
 426 184 l 2
 426 81 359 -16 248 -16 c 0
 152 -16 92 87 92 179 c 2
 92 232 l 1
 32 151 l 2
 29 146 24 145 20 145 c 0
 11 145 2 152 2 161 c 0
 2 164 4 168 6 171 c 2
126 337 m 1
 189 432 232 512 232 553 c 0
 232 609 216 632 181 632 c 0
 144 632 126 610 126 549 c 2
 126 337 l 1
EndSplineSet
EndChar

StartChar: c
Encoding: 99 99 59
Width: 303
Flags: MW
HStem: -16 32<121 186 121 191.5> 320 32<121 181>
VStem: -16 32<128 208 128 217>
LayerCount: 3
Fore
SplineSet
165 320 m 0
 77 320 16 249 16 167 c 0
 16 89 78 16 164 16 c 0
 208 16 245 19 291 65 c 0
 294 68 298 70 302 70 c 0
 311 70 320 61 320 52 c 0
 320 48 318 44 315 41 c 0
 263 -11 219 -16 164 -16 c 0
 58 -16 -16 73 -16 167 c 0
 -16 267 59 352 165 352 c 0
 218 352 268 327 296 296 c 0
 299 293 301 288 301 285 c 0
 301 276 292 269 283 269 c 0
 279 269 275 270 272 274 c 0
 244 305 197 320 165 320 c 0
EndSplineSet
EndChar

StartChar: d
Encoding: 100 100 60
Width: 535
Flags: MW
HStem: -16 32<114 192.5 387 426> 320 32<113.5 178.5 103.5 186.5> 644 20G<305.5 314.5>
VStem: -16 32<119 216.5 119 224.5> 294 32<180 207 293 648>
LayerCount: 3
Fore
SplineSet
-16 180 m 0
 -16 269 54 352 153 352 c 0
 204 352 260 333 294 293 c 1
 294 648 l 2
 294 657 301 664 310 664 c 0
 319 664 326 657 326 648 c 2
 326 209 l 1
 327 208 l 1
 326 207 l 1
 326 120 l 2
 326 70 358 16 416 16 c 0
 498 16 516 70 536 70 c 0
 539 70 543 68 546 65 c 0
 550 62 551 57 551 53 c 0
 551 49 550 45 547 42 c 0
 493 -16 436 -16 416 -16 c 0
 356 -16 318 24 302 70 c 1
 276 20 229 -16 156 -16 c 0
 67 -16 -16 26 -16 180 c 0
16 180 m 0
 16 58 72 16 156 16 c 0
 254 16 294 96 294 180 c 2
 294 207 l 1
 290 282 220 320 153 320 c 0
 74 320 16 253 16 180 c 0
EndSplineSet
EndChar

StartChar: e
Encoding: 101 101 61
Width: 267
Flags: MW
HStem: -16 32<120 156> 79 41 319 33<97 156.5>
VStem: 16 32<163.5 194 163.5 201.5> 198 33<262.5 279>
LayerCount: 3
Fore
SplineSet
-17 96 m 0
 -17 110 4 113 21 120 c 1
 18 137 16 154 16 170 c 0
 16 233 38 352 129 352 c 0
 197 352 231 313 231 269 c 0
 231 197 128 131 60 101 c 1
 76 52 107 16 133 16 c 0
 232 16 249 70 268 70 c 0
 272 70 283 67 283 53 c 0
 283 49 282 44 279 41 c 0
 228 -10 179 -16 133 -16 c 0
 85 -16 48 31 29 88 c 1
 19 84 8 79 -1 79 c 0
 -11 79 -17 87 -17 96 c 0
48 170 m 0
 48 157 50 145 52 133 c 1
 108 158 154 191 188 236 c 0
 194 244 198 256 198 269 c 0
 198 289 184 319 129 319 c 0
 65 319 48 218 48 170 c 0
EndSplineSet
EndChar

StartChar: f
Encoding: 102 102 62
Width: 254
Flags: MW
HStem: -16 34<89 154.5> 634 32<158.5 199>
VStem: 89 33<-63 -16 18 252 252 252> 232 32<538 572>
LayerCount: 3
Fore
SplineSet
-13 175 m 2
 89 308 l 1
 89 385 88 461 88 539 c 0
 88 597 108 666 183 666 c 0
 244 666 264 597 264 552 c 0
 264 504 195 397 122 297 c 1
 122 17 l 1
 180 17 196 20 243 65 c 0
 247 68 250 70 254 70 c 0
 263 70 270 62 270 53 c 0
 270 49 269 45 265 41 c 0
 211 -10 187 -16 122 -16 c 1
 122 -316 l 2
 122 -325 115 -332 106 -332 c 0
 97 -332 90 -325 90 -316 c 0
 90 -208 89 -110 89 -16 c 1
 54 -13 28 2 -7 43 c 0
 -10 46 -11 50 -11 53 c 0
 -11 62 -2 71 7 71 c 0
 11 71 16 69 19 65 c 0
 47 33 64 21 89 18 c 1
 89 252 l 1
 13 155 l 2
 9 151 5 149 0 149 c 0
 -9 149 -17 156 -17 165 c 0
 -17 168 -16 171 -13 175 c 2
122 353 m 1
 193 453 232 524 232 552 c 0
 232 592 215 634 183 634 c 0
 134 634 122 585 122 539 c 2
 122 353 l 1
EndSplineSet
EndChar

StartChar: g
Encoding: 103 103 63
Width: 484
Flags: MW
HStem: -324 32<251 271 251 292> -16 32<116 179.5> 320 32<118.5 182 109 188>
VStem: -17 33<129.5 170 170 173 129.5 219.5> 196 34<-248 -212.5 -248 -206.5> 292 34<-222 -193.5 -239 -89 141 143 143 167.5 289 318 318 329.5>
LayerCount: 3
Fore
SplineSet
292 134 m 0
 292 201 291 195 291 201 c 0
 291 276 216 320 160 320 c 0
 77 320 17 253 16 173 c 2
 16 170 l 2
 16 89 78 16 154 16 c 0
 220 16 292 67 292 134 c 0
-17 170 m 0
 -17 269 58 352 160 352 c 0
 204 352 258 330 292 289 c 1
 292 318 l 2
 292 341 294 353 309 353 c 0
 319 353 325 345 325 336 c 1
 326 336 l 1
 326 143 l 2
 326 139 325 136 325 132 c 2
 325 9 l 1
 365 58 414 112 472 172 c 0
 475 176 479 177 483 177 c 0
 492 177 501 168 501 159 c 0
 501 155 499 151 496 148 c 0
 429 79 370 14 325 -44 c 1
 325 -104 326 -165 326 -222 c 0
 326 -256 321 -324 263 -324 c 0
 236 -324 196 -309 196 -230 c 0
 196 -183 228 -117 292 -33 c 1
 292 50 l 1
 259 9 205 -16 154 -16 c 0
 57 -16 -17 74 -17 170 c 0
292 -89 m 1
 252 -147 230 -195 230 -230 c 0
 230 -266 239 -292 263 -292 c 0
 279 -292 292 -279 292 -222 c 2
 292 -89 l 1
EndSplineSet
EndChar

StartChar: h
Encoding: 104 104 64
Width: 554
Flags: MW
HStem: -16 32<435.5 472 435.5 477> 320 32<213 269.5> 634 32<141 178>
VStem: 62 32<0 181 318 533> 216 34<544.5 592.5> 362 32<125 192>
LayerCount: 3
Fore
SplineSet
-13 164 m 2
 62 269 l 1
 62 533 l 2
 62 605 81 666 161 666 c 0
 227 666 250 618 250 569 c 0
 250 516 203 424 139 325 c 1
 165 342 196 352 230 352 c 0
 329 352 394 281 394 192 c 2
 394 125 l 2
 394 66 415 16 456 16 c 0
 488 16 503 19 541 64 c 0
 544 68 549 70 553 70 c 0
 562 70 571 61 571 52 c 0
 571 49 570 45 567 42 c 0
 522 -11 498 -16 456 -16 c 0
 399 -16 362 39 362 125 c 2
 362 192 l 2
 362 265 309 320 230 320 c 0
 155 320 94 257 94 181 c 2
 94 0 l 2
 94 -9 87 -16 78 -16 c 0
 69 -16 62 -9 62 0 c 2
 62 181 l 1
 61 211 l 1
 13 144 l 2
 9 139 5 137 1 137 c 0
 -8 137 -16 145 -16 154 c 0
 -16 157 -15 161 -13 164 c 2
94 318 m 1
 164 424 216 520 216 569 c 0
 216 616 195 634 161 634 c 0
 121 634 94 615 94 533 c 2
 94 318 l 1
EndSplineSet
EndChar

StartChar: i
Encoding: 105 105 65
Width: 294
Flags: MW
HStem: -16 32<171.5 219.5> 332 20G<120 127> 488 63<114 127 110.5 130.5>
VStem: 91 59<512.5 527 512.5 528.5> 102 32<133 287 287 287>
LayerCount: 3
Fore
SplineSet
-13 189 m 0xe8
 -13 190 96 335 105 346 c 0
 112 350 118 352 122 352 c 0
 132 352 134 342 134 336 c 2
 134 133 l 2
 134 82 147 16 196 16 c 0
 265 16 275 70 294 70 c 0
 297 70 300 69 304 66 c 0
 308 62 311 58 311 53 c 0
 311 50 309 46 307 43 c 0
 271 -2 243 -16 196 -16 c 0
 120 -16 102 67 102 133 c 2
 102 287 l 1
 13 169 l 2
 9 164 5 162 1 162 c 0
 -8 162 -17 170 -17 179 c 0
 -17 182 -15 186 -13 189 c 0xe8
91 521 m 0xf0
 91 536 102 551 119 551 c 0
 135 551 150 536 150 518 c 0
 150 507 139 488 122 488 c 0
 106 488 91 503 91 521 c 0xf0
EndSplineSet
EndChar

StartChar: j
Encoding: 106 106 66
Width: 331
Flags: MW
HStem: -324 34<95.5 117.5 95.5 118> 333 20G<151.5 158> 498 64<142 155 138.5 158.5>
VStem: 42 34<-254 -214.5 -254 -206> 119 59<522.5 537 522.5 538.5> 138 32<-232 -94 -94 -94 5 287 287 287>
LayerCount: 3
Fore
SplineSet
348 160 m 0xf4
 348 145 267 75 170 -49 c 1
 170 -232 l 2
 170 -312 131 -324 105 -324 c 0
 80 -324 42 -312 42 -233 c 0
 42 -179 85 -107 138 -37 c 1
 138 287 l 1
 48 167 l 2
 44 162 40 160 36 160 c 0
 27 160 18 168 18 177 c 0
 18 180 20 184 22 187 c 2
 141 347 l 2
 144 352 149 353 154 353 c 0
 162 353 170 347 170 337 c 2
 170 5 l 1
 225 73 286 135 319 171 c 0
 322 175 326 177 330 177 c 0
 339 177 348 169 348 160 c 0xf4
138 -94 m 1
 101 -147 76 -196 76 -233 c 0
 76 -275 86 -290 105 -290 c 0
 130 -290 138 -268 138 -232 c 2
 138 -94 l 1
119 531 m 0xf8
 119 546 130 562 147 562 c 0
 163 562 178 546 178 528 c 0
 178 517 167 498 150 498 c 0
 134 498 119 513 119 531 c 0xf8
EndSplineSet
EndChar

StartChar: k
Encoding: 107 107 67
Width: 468
Flags: MW
HStem: -16 32<349 386.5 349 390> 163 33<107 141 106 163> 320 32<196 231> 632 32<144 178>
VStem: 72 34<0 163 338 553> 212 34<531 582.5> 288 32<240 273.5>
LayerCount: 3
Fore
SplineSet
-17 164 m 0
 -17 167 -15 171 -13 174 c 2
 72 290 l 1
 72 553 l 2
 72 649 126 664 162 664 c 0
 195 664 246 650 246 553 c 0
 246 504 201 422 140 330 c 1
 159 344 182 352 210 352 c 0
 265 352 320 315 320 255 c 0
 320 215 296 192 265 178 c 1
 343 139 323 16 375 16 c 0
 398 16 408 17 456 65 c 0
 459 68 463 70 467 70 c 0
 476 70 485 61 485 52 c 0
 485 48 483 44 480 41 c 0
 424 -15 405 -16 375 -16 c 0
 294 -16 313 99 262 141 c 0
 242 158 206 163 141 163 c 2
 106 163 l 1
 106 0 l 2
 106 -9 98 -16 89 -16 c 0
 80 -16 72 -9 72 0 c 2
 72 170 l 1
 73 233 l 1
 13 154 l 2
 9 149 5 147 1 147 c 0
 -8 147 -17 155 -17 164 c 0
106 338 m 1
 163 423 212 509 212 553 c 0
 212 612 194 632 162 632 c 0
 126 632 106 611 106 553 c 2
 106 338 l 1
107 196 m 1
 163 196 l 2
 195 196 215 197 227 200 c 0
 267 210 288 225 288 255 c 0
 288 292 252 320 210 320 c 0
 150 320 114 261 107 196 c 1
EndSplineSet
EndChar

StartChar: l
Encoding: 108 108 68
Width: 328
Flags: MW
HStem: -16 32<171 246 171 252.5> 634 32<139 183>
VStem: 68 32<161 210 210 210 319 550> 224 32<529 595>
LayerCount: 3
Fore
SplineSet
-17 143 m 0
 -17 146 -15 149 -13 152 c 2
 68 269 l 1
 68 550 l 2
 68 618 107 666 165 666 c 0
 219 666 256 639 256 569 c 0
 256 477 186 390 145 327 c 2
 100 259 l 1
 100 161 l 2
 100 68 124 16 218 16 c 0
 274 16 278 24 316 64 c 0
 319 68 323 70 327 70 c 0
 336 70 345 61 345 52 c 0
 345 48 343 45 340 42 c 0
 299 -1 287 -16 218 -16 c 0
 90 -16 68 70 68 161 c 2
 68 210 l 1
 13 133 l 2
 9 128 5 126 1 126 c 0
 -8 126 -17 134 -17 143 c 0
100 319 m 1
 117 345 l 2
 157 406 224 489 224 569 c 0
 224 621 201 634 165 634 c 0
 113 634 100 582 100 550 c 2
 100 319 l 1
EndSplineSet
EndChar

StartChar: m
Encoding: 109 109 69
Width: 863
Flags: MW
HStem: -16 32<742 790> 320 32<203 265 497.5 571>
VStem: 70 34<0 162> 370 34<0 156> 670 34<131 155 104.5 198.5>
CounterMasks: 1 38
LayerCount: 3
Fore
SplineSet
-14 186 m 2
 70 336 l 1
 70 346 77 352 87 352 c 0
 97 352 104 346 104 336 c 2
 104 277 l 1
 131 320 174 352 232 352 c 0
 298 352 357 306 385 242 c 1
 409 307 463 352 532 352 c 0
 634 352 704 254 704 155 c 2
 704 131 l 2
 704 78 716 16 768 16 c 0
 831 16 844 70 864 70 c 0
 867 70 870 68 874 65 c 0
 878 62 879 57 879 53 c 0
 879 49 878 45 875 42 c 0
 835 -3 812 -16 768 -16 c 0
 690 -16 670 65 670 131 c 2
 670 155 l 2
 670 242 610 320 532 320 c 0
 454 320 404 245 404 156 c 2
 404 0 l 2
 404 -9 396 -16 387 -16 c 0
 378 -16 370 -9 370 0 c 2
 370 156 l 2
 370 242 306 320 232 320 c 0
 152 320 104 237 104 162 c 2
 104 0 l 2
 104 -9 96 -16 87 -16 c 0
 78 -16 70 -9 70 0 c 2
 70 272 l 1
 14 170 l 2
 11 164 6 161 1 161 c 0
 -7 161 -16 169 -16 178 c 0
 -16 181 -16 183 -14 186 c 2
EndSplineSet
EndChar

StartChar: n
Encoding: 110 110 70
Width: 563
Flags: MW
HStem: -16 32<441 489> 320 32<204 274>
VStem: 70 34<0 161> 370 34<132 162 107 195>
LayerCount: 3
Fore
SplineSet
-14 186 m 2
 73 344 l 2
 76 350 81 352 87 352 c 0
 95 352 104 346 104 336 c 2
 104 277 l 1
 131 321 175 352 233 352 c 0
 335 352 404 245 404 162 c 2
 404 132 l 2
 404 82 416 16 466 16 c 0
 534 16 544 70 563 70 c 0
 566 70 569 69 573 66 c 0
 577 62 580 58 580 53 c 0
 580 50 578 46 576 43 c 0
 540 -2 512 -16 466 -16 c 0
 390 -16 370 68 370 132 c 2
 370 162 l 2
 370 228 315 320 233 320 c 0
 152 320 104 238 104 161 c 2
 104 0 l 2
 104 -9 96 -16 87 -16 c 0
 78 -16 70 -9 70 0 c 2
 70 272 l 1
 14 170 l 2
 11 164 6 161 1 161 c 0
 -7 161 -16 169 -16 178 c 0
 -16 181 -15 183 -14 186 c 2
EndSplineSet
EndChar

StartChar: o
Encoding: 111 111 71
Width: 485
Flags: MW
HStem: -16 32<99 203 99 220> 219 33<350.5 379 345 384> 320 32<107 174.5>
VStem: -16 32<134 208.5 134 215.5> 286 33<161 185.5 130.5 205> 453 33
LayerCount: 3
Fore
SplineSet
-16 169 m 0
 -16 262 46 352 144 352 c 0
 215 352 250 319 276 291 c 0
 280 289 285 285 291 276 c 0
 308 261 332 252 358 252 c 0
 400 252 440 273 453 312 c 0
 456 320 462 324 468 324 c 0
 477 324 486 317 486 307 c 0
 486 305 486 304 485 302 c 0
 466 246 410 219 358 219 c 0
 343 219 328 221 314 226 c 1
 317 212 319 195 319 176 c 0
 319 85 286 -16 154 -16 c 0
 32 -16 -16 71 -16 169 c 0
16 169 m 0
 16 99 44 16 154 16 c 0
 252 16 270 80 276 103 c 0
 280 117 286 146 286 176 c 0
 286 234 263 257 256 266 c 0
 233 292 205 320 144 320 c 0
 70 320 16 248 16 169 c 0
EndSplineSet
EndChar

StartChar: p
Encoding: 112 112 72
Width: 563
Flags: MW
HStem: -328 21G<82.5 91.5> -16 32<441 489> 320 32<204 274>
VStem: 70 34<-311 161> 370 34<132 162 107 195>
LayerCount: 3
Fore
SplineSet
-14 186 m 2
 73 344 l 2
 76 350 81 352 87 352 c 0
 95 352 104 346 104 336 c 2
 104 277 l 1
 131 321 175 352 233 352 c 0
 335 352 404 245 404 162 c 2
 404 132 l 2
 404 82 416 16 466 16 c 0
 534 16 544 70 563 70 c 0
 566 70 569 69 573 66 c 0
 577 62 580 58 580 53 c 0
 580 50 578 46 576 43 c 0
 540 -2 512 -16 466 -16 c 0
 390 -16 370 68 370 132 c 2
 370 162 l 2
 370 228 315 320 233 320 c 0
 152 320 104 238 104 161 c 2
 104 -311 l 2
 104 -320 96 -328 87 -328 c 0
 78 -328 70 -320 70 -311 c 2
 70 272 l 1
 14 170 l 2
 11 164 6 161 1 161 c 0
 -7 161 -16 169 -16 178 c 0
 -16 181 -15 183 -14 186 c 2
EndSplineSet
EndChar

StartChar: q
Encoding: 113 113 73
Width: 538
Flags: MW
HStem: -16 32<115 184> 320 32<119 188.5 108.5 197>
VStem: -16 32<126.5 208 126.5 216.5> 304 34<-314 -161.5 -76 57 57 57 156 196 196 234 289 336>
LayerCount: 3
Fore
SplineSet
304 57 m 1
 270 12 214 -16 154 -16 c 0
 55 -16 -16 71 -16 167 c 0
 -16 266 58 352 159 352 c 0
 218 352 271 329 304 289 c 1
 304 336 l 2
 304 345 312 352 321 352 c 0
 330 352 338 345 338 336 c 2
 338 -76 l 1
 383 58 464 114 527 172 c 0
 530 175 534 177 538 177 c 0
 547 177 555 168 555 159 c 0
 555 155 553 151 549 148 c 0
 458 65 338 -9 338 -314 c 0
 338 -324 331 -330 321 -330 c 0
 311 -330 304 -324 304 -314 c 2
 304 57 l 1
159 320 m 0
 79 320 16 249 16 167 c 0
 16 86 76 16 154 16 c 0
 235 16 304 77 304 156 c 2
 304 196 l 2
 304 272 235 320 159 320 c 0
EndSplineSet
EndChar

StartChar: r
Encoding: 114 114 74
Width: 540
Flags: MW
HStem: -16 21G<302.5 311.5> 219 33<398 435.5 392 440.5> 320 32<149.5 202 142.5 210>
VStem: 290 34<0 215 215 244 308 336 336 341>
LayerCount: 3
Fore
SplineSet
15 239 m 0
 79 319 104 352 181 352 c 0
 223 352 263 333 290 302 c 1
 290 336 l 2
 290 346 297 352 307 352 c 0
 317 352 324 346 324 336 c 0
 324 280 369 252 415 252 c 0
 456 252 495 273 508 313 c 0
 511 321 517 324 523 324 c 0
 532 324 541 318 541 308 c 0
 541 306 541 305 540 303 c 0
 521 246 466 219 415 219 c 0
 381 219 348 231 324 254 c 1
 324 0 l 2
 324 -9 316 -16 307 -16 c 0
 298 -16 290 -9 290 0 c 2
 290 215 l 2
 290 273 239 320 181 320 c 0
 118 320 102 293 41 219 c 0
 37 215 33 213 29 213 c 0
 20 213 11 220 11 229 c 0
 11 232 12 236 15 239 c 0
EndSplineSet
EndChar

StartChar: s
Encoding: 115 115 75
Width: 267
Flags: MW
HStem: -16 32<113.5 170.5 113.5 180.5> 332 20G<120.5 125.5>
VStem: 256 34<108.5 183>
LayerCount: 3
Fore
SplineSet
0 227 m 2
 110 347 l 2
 114 351 118 352 123 352 c 0
 128 352 133 350 136 345 c 0
 191 258 290 248 290 143 c 0
 290 58 224 -16 137 -16 c 0
 84 -16 50 -1 9 44 c 0
 6 48 4 51 4 55 c 0
 4 64 13 71 22 71 c 0
 26 71 30 70 33 66 c 0
 67 30 90 16 137 16 c 0
 204 16 256 74 256 143 c 0
 256 223 178 233 120 310 c 1
 24 205 l 2
 21 201 17 200 13 200 c 0
 4 200 -5 207 -5 216 c 0
 -5 220 -3 223 0 227 c 2
EndSplineSet
EndChar

StartChar: t
Encoding: 116 116 76
Width: 335
Flags: MW
HStem: -17 33<173.5 243.5> 356 34<-1.5 82 3 82 114 193 3 114> 646 20G<93.5 102.5>
VStem: 82 32<132 356 390 650>
LayerCount: 3
Fore
SplineSet
-14 373 m 0
 -14 382 -6 390 3 390 c 2
 82 390 l 1
 82 650 l 2
 82 659 89 666 98 666 c 0
 107 666 114 659 114 650 c 2
 114 390 l 1
 193 390 l 2
 202 390 210 382 210 373 c 0
 210 364 202 356 193 356 c 2
 114 356 l 1
 114 132 l 2
 114 85 134 16 213 16 c 0
 308 16 316 71 335 71 c 0
 338 71 342 69 346 66 c 0
 350 63 352 58 352 53 c 0
 352 49 351 45 348 42 c 0
 312 -1 274 -17 213 -17 c 0
 122 -17 82 56 82 132 c 2
 82 356 l 1
 3 356 l 2
 -6 356 -14 364 -14 373 c 0
EndSplineSet
EndChar

StartChar: u
Encoding: 117 117 77
Width: 564
Flags: MW
HStem: -16 32<193.5 261 441.5 491> 332 20G<85 92 383.5 392.5>
VStem: 72 32<177 274 274 274> 372 32<184 336>
LayerCount: 3
Fore
SplineSet
-14 186 m 2
 73 344 l 2
 76 350 82 352 88 352 c 0
 96 352 104 347 104 336 c 2
 104 177 l 2
 104 94 161 16 226 16 c 0
 316 16 372 96 372 184 c 2
 372 336 l 2
 372 345 379 352 388 352 c 0
 397 352 404 345 404 336 c 2
 404 133 l 2
 404 83 417 16 466 16 c 0
 537 16 545 70 564 70 c 0
 567 70 570 69 574 66 c 0
 578 62 581 58 581 53 c 0
 581 50 579 46 577 43 c 0
 542 0 516 -16 466 -16 c 0
 412 -16 387 27 377 75 c 1
 348 22 296 -16 226 -16 c 0
 139 -16 72 78 72 177 c 2
 72 274 l 1
 14 170 l 2
 11 164 5 161 0 161 c 0
 -8 161 -16 169 -16 178 c 0
 -16 181 -16 183 -14 186 c 2
EndSplineSet
EndChar

StartChar: v
Encoding: 118 118 78
Width: 622
Flags: MW
HStem: -16 32<194.5 271.5 194.5 282.5> 220 33<478 516> 332 20G<86 93 384 394>
VStem: 72 34<177 273 273 273> 372 34<183 253 307 336 336 341> 590 33
LayerCount: 3
Fore
SplineSet
-14 186 m 2
 75 344 l 2
 78 350 83 352 89 352 c 0
 97 352 106 346 106 336 c 2
 106 177 l 2
 106 94 162 16 227 16 c 0
 316 16 372 95 372 183 c 2
 372 336 l 2
 372 346 379 352 389 352 c 0
 399 352 406 346 406 336 c 0
 406 278 449 253 495 253 c 0
 537 253 577 275 590 313 c 0
 593 321 599 325 605 325 c 0
 614 325 623 318 623 308 c 0
 623 306 623 305 622 303 c 0
 604 247 547 220 495 220 c 0
 461 220 429 231 406 253 c 1
 406 183 l 2
 406 80 338 -16 227 -16 c 0
 140 -16 72 78 72 177 c 2
 72 273 l 1
 14 170 l 2
 11 164 6 162 1 162 c 0
 -8 162 -16 169 -16 178 c 0
 -16 181 -16 183 -14 186 c 2
EndSplineSet
EndChar

StartChar: w
Encoding: 119 119 79
Width: 925
Flags: MW
HStem: -16 32<194 269.5 497.5 574.5> 220 33<781 819.5> 332 20G<89.5 96 387.5 396.5 688 696>
VStem: 76 32<177 275 275 275> 376 32<178 336> 676 32<183 253 306.5 335 335 336> 893 33
LayerCount: 3
Fore
SplineSet
-14 186 m 2
 78 344 l 2
 81 350 87 352 92 352 c 0
 100 352 108 346 108 336 c 2
 108 177 l 2
 108 101 158 16 230 16 c 0
 321 16 376 100 376 178 c 2
 376 336 l 2
 376 345 383 352 392 352 c 0
 401 352 408 345 408 336 c 2
 408 178 l 2
 408 96 461 16 530 16 c 0
 619 16 676 95 676 183 c 2
 676 336 l 2
 676 347 684 352 692 352 c 0
 700 352 708 347 708 336 c 2
 708 335 l 2
 708 278 752 253 798 253 c 0
 841 253 882 275 893 313 c 0
 896 321 902 325 908 325 c 0
 917 325 926 318 926 308 c 0
 926 306 926 305 925 303 c 0
 908 247 851 220 798 220 c 0
 764 220 731 231 708 253 c 1
 708 183 l 2
 708 80 641 -16 530 -16 c 0
 465 -16 415 33 391 95 c 1
 365 34 309 -16 230 -16 c 0
 143 -16 76 78 76 177 c 2
 76 275 l 1
 14 170 l 2
 11 164 5 162 0 162 c 0
 -9 162 -17 169 -17 178 c 0
 -17 181 -16 183 -14 186 c 2
EndSplineSet
EndChar

StartChar: x
Encoding: 120 120 80
Width: 564
Flags: MW
HStem: -16 32<97 142.5 73.5 147.5 421.5 467> 333 20G<155.5 162.5 401.5 408.5>
LayerCount: 3
Fore
SplineSet
-17 53 m 0
 -17 62 -8 70 1 70 c 0
 18 70 29 16 118 16 c 0
 167 16 217 64 262 125 c 1
 214 194 142 327 142 336 c 0
 142 345 151 353 160 353 c 0
 165 353 171 350 174 344 c 0
 196 302 235 223 282 154 c 1
 329 223 368 302 390 344 c 0
 393 350 399 353 404 353 c 0
 413 353 422 345 422 336 c 0
 422 326 350 193 302 125 c 1
 347 64 397 16 446 16 c 0
 536 16 545 70 564 70 c 0
 571 70 580 63 580 53 c 0
 580 49 579 46 577 43 c 0
 535 -9 488 -16 446 -16 c 0
 387 -16 332 31 282 97 c 1
 232 31 177 -16 118 -16 c 0
 76 -16 29 -9 -13 43 c 0
 -16 46 -17 50 -17 53 c 0
EndSplineSet
EndChar

StartChar: y
Encoding: 121 121 81
Width: 569
Flags: MW
HStem: -324 32<339.5 359 339.5 376.5> -16 32<198.5 264.5> 333 20G<91.5 98>
VStem: 78 32<178 277 277 277> 282 34<-262 -216.5 -262 -207> 378 32<-224 -92 -92 -92 6 65 65 65 183 337>
LayerCount: 3
Fore
SplineSet
410 -47 m 1
 410 -224 l 2
 410 -261 407 -324 346 -324 c 0
 308 -324 282 -297 282 -237 c 0
 282 -177 325 -104 378 -35 c 1
 378 65 l 1
 347 16 296 -16 233 -16 c 0
 140 -16 78 84 78 178 c 2
 78 277 l 1
 14 170 l 2
 11 164 6 161 1 161 c 0
 -8 161 -17 169 -17 178 c 0
 -17 181 -16 183 -14 186 c 2
 80 345 l 2
 83 350 89 353 94 353 c 0
 102 353 110 347 110 337 c 2
 110 178 l 2
 110 95 164 16 233 16 c 0
 321 16 378 95 378 183 c 2
 378 337 l 2
 378 346 385 354 394 354 c 0
 403 354 410 346 410 337 c 2
 410 6 l 1
 464 72 523 132 556 171 c 0
 560 175 564 177 568 177 c 0
 577 177 586 169 586 160 c 0
 586 157 585 152 582 149 c 0
 547 108 471 32 410 -47 c 1
316 -237 m 0
 316 -287 333 -292 346 -292 c 0
 372 -292 378 -267 378 -224 c 2
 378 -92 l 1
 342 -145 316 -196 316 -237 c 0
EndSplineSet
EndChar

StartChar: z
Encoding: 122 122 82
Width: 357
Flags: MW
HStem: -17 33<222 267 263 267> 37 33<83 90 90 112.5> 270 33<195 213 213 214> 320 32<62 110>
LayerCount: 3
Fore
SplineSet
-17 0 m 0
 -17 4 -15 7 -12 11 c 2
 214 270 l 1
 213 270 l 2
 164 270 134 320 86 320 c 0
 31 320 31 271 9 271 c 0
 0 271 -9 279 -9 288 c 0
 -9 291 -8 296 -5 299 c 0
 22 331 38 352 86 352 c 0
 146 352 177 303 213 303 c 0
 251 303 280 353 294 353 c 0
 303 353 311 345 311 336 c 0
 311 332 309 329 306 325 c 2
 83 70 l 1
 90 70 l 2
 146 70 190 16 263 16 c 2
 267 16 l 2
 296 16 306 16 344 63 c 0
 348 67 352 70 356 70 c 0
 365 70 374 62 374 53 c 0
 374 50 373 46 370 43 c 0
 324 -14 303 -17 267 -17 c 2
 263 -17 l 2
 181 -17 135 37 90 37 c 0
 45 37 14 -17 0 -17 c 0
 -9 -17 -17 -9 -17 0 c 0
EndSplineSet
EndChar

StartChar: asciitilde
Encoding: 126 126 83
Width: 651
Flags: W
HStem: -10 20<0 1107 0 1107> 326 10 656 10
LayerCount: 3
Fore
SplineSet
0 10 m 1
 651 10 l 1
 651 -10 l 1
 0 -10 l 1
 0 10 l 1
EndSplineSet
EndChar

StartChar: dieresis
Encoding: 168 168 84
Width: 1333
Flags: MW
HStem: 487 64<207 214>
VStem: 180 59<514.5 524.5> 271 59<515.5 527.5 515.5 527.5>
LayerCount: 3
Fore
SplineSet
180 519 m 4
 180 530 185 542 197 548 c 4
 201 550 205 551 209 551 c 4
 226 551 239 535 239 518 c 4
 239 511 237 504 232 498 c 4
 226 490 218 487 210 487 c 4
 195 487 180 499 180 519 c 4
271 521 m 4
 271 534 278 545 288 550 c 4
 292 552 296 553 300 553 c 4
 317 553 330 536 330 519 c 4
 330 512 328 505 323 499 c 4
 317 491 309 488 301 488 c 4
 285 488 271 501 271 521 c 4
EndSplineSet
EndChar

StartChar: acute
Encoding: 180 180 85
Width: 1333
Flags: MW
HStem: 504 162<460 492 460 492>
VStem: 460 32<504 666 504 666>
LayerCount: 3
Fore
SplineSet
460 504 m 1
 460 666 l 1
 492 666 l 1
 492 504 l 1
 460 504 l 1
EndSplineSet
EndChar

StartChar: caron
Encoding: 711 711 86
Width: 324
Flags: HW
LayerCount: 3
Back
Fore
SplineSet
56.5022878271 487.002287827 m 4
 56.5022878271 496.108885327 63.8956903271 503.502287827 73.0022878271 503.502287827 c 4
 77.5555865771 503.502287827 81.6805865771 501.653937202 84.6672618896 498.66726189 c 6
 149.923489395 433.411034384 l 5
 214.258164942 498.592218819 l 6
 217.250709358 501.62413882 221.407375777 503.504322301 225.999717237 503.504322301 c 4
 235.106318475 503.504322301 242.49972401 496.110916766 242.49972401 487.004315528 c 4
 242.49972401 482.49005575 240.682932954 478.396781757 237.744709938 475.410693888 c 6
 237.744709938 475.410693888 161.74618231 398.41069879 161.70750344 398.371638849 c 4
 158.483959963 395.126955002 154.242231465 393.502919237 149.999719688 393.502919237 c 4
 145.794110786 393.502919237 141.587732172 395.098824999 138.33273811 398.33273811 c 6
 61.3327381104 475.33273811 l 6
 58.3506384521 478.323989077 56.5022878271 482.448989077 56.5022878271 487.002287827 c 4
EndSplineSet
Layer: 2
SplineSet
73 487 m 29
 150 410 l 5
 226 487 l 1053
EndSplineSet
EndChar

StartChar: hungarumlaut
Encoding: 733 733 87
Width: 1333
Flags: MW
HStem: 505 161<159 192 159 192 224 256 159 224>
VStem: 159 33<505 666 505 666> 224 32<505 666 505 666>
LayerCount: 3
Fore
SplineSet
159 505 m 1
 159 666 l 1
 192 666 l 1
 192 505 l 1
 159 505 l 1
224 505 m 1
 224 666 l 1
 256 666 l 1
 256 505 l 1
 224 505 l 1
EndSplineSet
EndChar

StartChar: aacute
Encoding: 225 225 97
Width: 499
Flags: MW
HStem: -16 32<106 185 372 415> 320 32<107 157 150 157> 504 162<132 164 132 164>
VStem: -16 32<129.5 209.5 129.5 218> 132 32<504 666 504 666> 294 34<130 180 180 185 184 185 298 336>
LayerCount: 3
Fore
SplineSet
132 504 m 1
 132 666 l 1
 164 666 l 1
 164 504 l 1
 132 504 l 1
-16 170 m 0
 -16 266 44 352 150 352 c 2
 157 352 l 2
 197 352 257 348 294 298 c 1
 294 336 l 2
 294 345 302 352 311 352 c 0
 320 352 328 345 328 336 c 2
 328 94 l 2
 328 53 351 16 393 16 c 0
 437 16 439 17 487 65 c 0
 490 68 494 70 498 70 c 0
 507 70 516 61 516 52 c 0
 516 48 514 44 511 41 c 0
 458 -12 447 -16 393 -16 c 0
 348 -16 314 12 301 53 c 1
 272 13 220 -16 150 -16 c 0
 40 -16 -16 74 -16 170 c 0
16 170 m 0
 16 89 62 16 150 16 c 0
 246 16 294 80 294 130 c 2
 294 180 l 2
 293 182 294 183 294 185 c 0
 290 315 207 320 157 320 c 2
 150 320 l 2
 64 320 16 249 16 170 c 0
EndSplineSet
EndChar

StartChar: eacute
Encoding: 233 233 98
Width: 267
Flags: MW
HStem: -16 32<120 156> 79 41 319 33<97 156.5> 503 162<106 138 106 138>
VStem: 16 32<163.5 194 163.5 201.5> 106 32<503 665 503 665> 198 33<262.5 279>
LayerCount: 3
Fore
SplineSet
106 503 m 1
 106 665 l 1
 138 665 l 1
 138 503 l 1
 106 503 l 1
-17 96 m 0
 -17 110 4 113 21 120 c 1
 18 137 16 154 16 170 c 0
 16 233 38 352 129 352 c 0
 197 352 231 313 231 269 c 0
 231 197 128 131 60 101 c 1
 76 52 107 16 133 16 c 0
 232 16 249 70 268 70 c 0
 272 70 283 67 283 53 c 0
 283 49 282 44 279 41 c 0
 228 -10 179 -16 133 -16 c 0
 85 -16 48 31 29 88 c 1
 19 84 8 79 -1 79 c 0
 -11 79 -17 87 -17 96 c 0
48 170 m 0
 48 157 50 145 52 133 c 1
 108 158 154 191 188 236 c 0
 194 244 198 256 198 269 c 0
 198 289 184 319 129 319 c 0
 65 319 48 218 48 170 c 0
EndSplineSet
EndChar

StartChar: iacute
Encoding: 237 237 99
Width: 294
Flags: MW
HStem: -16 32<171.5 219.5> 332 20G<120 127> 646 20G<103 135 135 135>
VStem: 102 32<133 287 287 287>
LayerCount: 3
Fore
SplineSet
-13 189 m 0
 -13 190 96 335 105 346 c 0
 112 350 118 352 122 352 c 0
 132 352 134 342 134 336 c 2
 134 133 l 2
 134 82 147 16 196 16 c 0
 265 16 275 70 294 70 c 0
 297 70 300 69 304 66 c 0
 308 62 311 58 311 53 c 0
 311 50 309 46 307 43 c 0
 271 -2 243 -16 196 -16 c 0
 120 -16 102 67 102 133 c 2
 102 287 l 1
 13 169 l 2
 9 164 5 162 1 162 c 0
 -8 162 -17 170 -17 179 c 0
 -17 182 -15 186 -13 189 c 0
103 504 m 1
 103 666 l 1
 135 666 l 1
 135 504 l 1
 103 504 l 1
EndSplineSet
EndChar

StartChar: oacute
Encoding: 243 243 100
Width: 485
Flags: MW
HStem: -16 32<99 203 99 220> 219 33<350.5 379 345 384> 320 32<107 174.5> 645 20G<125 157 157 157>
VStem: -16 32<134 208.5 134 215.5> 125 32<503 665 503 665> 286 33<161 185.5 130.5 205> 453 33
LayerCount: 3
Fore
SplineSet
-16 169 m 0
 -16 262 46 352 144 352 c 0
 215 352 250 319 276 291 c 0
 280 289 285 285 291 276 c 0
 308 261 332 252 358 252 c 0
 400 252 440 273 453 312 c 0
 456 320 462 324 468 324 c 0
 477 324 486 317 486 307 c 0
 486 305 486 304 485 302 c 0
 466 246 410 219 358 219 c 0
 343 219 328 221 314 226 c 1
 317 212 319 195 319 176 c 0
 319 85 286 -16 154 -16 c 0
 32 -16 -16 71 -16 169 c 0
16 169 m 0
 16 99 44 16 154 16 c 0
 252 16 270 80 276 103 c 0
 280 117 286 146 286 176 c 0
 286 234 263 257 256 266 c 0
 233 292 205 320 144 320 c 0
 70 320 16 248 16 169 c 0
125 503 m 1
 125 665 l 1
 157 665 l 1
 157 503 l 1
 125 503 l 1
EndSplineSet
EndChar

StartChar: ohungarumlaut
Encoding: 337 337 101
Width: 485
Flags: MW
HStem: -16 32<99 203 99 220> 219 33<350.5 379 345 384> 320 32<107 174.5> 643 20G<92 125 125 125 157 189 189 189>
VStem: -16 32<134 208.5 134 215.5> 92 33<502 663 502 663> 157 32<502 663 502 663> 286 33<161 185.5 130.5 205> 453 33
LayerCount: 3
Fore
SplineSet
-16 169 m 0
 -16 262 46 352 144 352 c 0
 215 352 250 319 276 291 c 0
 280 289 285 285 291 276 c 0
 308 261 332 252 358 252 c 0
 400 252 440 273 453 312 c 0
 456 320 462 324 468 324 c 0
 477 324 486 317 486 307 c 0
 486 305 486 304 485 302 c 0
 466 246 410 219 358 219 c 0
 343 219 328 221 314 226 c 1
 317 212 319 195 319 176 c 0
 319 85 286 -16 154 -16 c 0
 32 -16 -16 71 -16 169 c 0
16 169 m 0
 16 99 44 16 154 16 c 0
 252 16 270 80 276 103 c 0
 280 117 286 146 286 176 c 0
 286 234 263 257 256 266 c 0
 233 292 205 320 144 320 c 0
 70 320 16 248 16 169 c 0
92 502 m 1
 92 663 l 1
 125 663 l 1
 125 502 l 1
 92 502 l 1
157 502 m 1
 157 663 l 1
 189 663 l 1
 189 502 l 1
 157 502 l 1
EndSplineSet
EndChar

StartChar: odieresis
Encoding: 246 246 102
Width: 485
Flags: MW
HStem: -16 32<99 203 99 220> 219 33<350.5 379 345 384> 320 32<107 174.5> 473 64<93 100>
VStem: -16 32<134 208.5 134 215.5> 66 59<500.5 510.5> 157 59<501.5 513.5 501.5 513.5> 286 33<161 185.5 130.5 205> 453 33
LayerCount: 3
Fore
SplineSet
-16 169 m 0
 -16 262 46 352 144 352 c 0
 215 352 250 319 276 291 c 0
 280 289 285 285 291 276 c 0
 308 261 332 252 358 252 c 0
 400 252 440 273 453 312 c 0
 456 320 462 324 468 324 c 0
 477 324 486 317 486 307 c 0
 486 305 486 304 485 302 c 0
 466 246 410 219 358 219 c 0
 343 219 328 221 314 226 c 1
 317 212 319 195 319 176 c 0
 319 85 286 -16 154 -16 c 0
 32 -16 -16 71 -16 169 c 0
16 169 m 0
 16 99 44 16 154 16 c 0
 252 16 270 80 276 103 c 0
 280 117 286 146 286 176 c 0
 286 234 263 257 256 266 c 0
 233 292 205 320 144 320 c 0
 70 320 16 248 16 169 c 0
66 505 m 0
 66 516 71 528 83 534 c 0
 87 536 91 537 95 537 c 0
 112 537 125 521 125 504 c 0
 125 497 123 490 118 484 c 0
 112 476 104 473 96 473 c 0
 81 473 66 485 66 505 c 0
157 507 m 0
 157 520 164 531 174 536 c 0
 178 538 182 539 186 539 c 0
 203 539 216 522 216 505 c 0
 216 498 214 491 209 485 c 0
 203 477 195 474 187 474 c 0
 171 474 157 487 157 507 c 0
EndSplineSet
EndChar

StartChar: uacute
Encoding: 250 250 103
Width: 564
Flags: MW
HStem: -16 32<193.5 261 441.5 491> 332 20G<85 92 383.5 392.5> 503 162<219 251 219 251>
VStem: 72 32<177 274 274 274> 219 32<503 665 503 665> 372 32<184 336>
LayerCount: 3
Fore
SplineSet
219 503 m 1
 219 665 l 1
 251 665 l 1
 251 503 l 1
 219 503 l 1
-14 186 m 2
 73 344 l 2
 76 350 82 352 88 352 c 0
 96 352 104 347 104 336 c 2
 104 177 l 2
 104 94 161 16 226 16 c 0
 316 16 372 96 372 184 c 2
 372 336 l 2
 372 345 379 352 388 352 c 0
 397 352 404 345 404 336 c 2
 404 133 l 2
 404 83 417 16 466 16 c 0
 537 16 545 70 564 70 c 0
 567 70 570 69 574 66 c 0
 578 62 581 58 581 53 c 0
 581 50 579 46 577 43 c 0
 542 0 516 -16 466 -16 c 0
 412 -16 387 27 377 75 c 1
 348 22 296 -16 226 -16 c 0
 139 -16 72 78 72 177 c 2
 72 274 l 1
 14 170 l 2
 11 164 5 161 0 161 c 0
 -8 161 -16 169 -16 178 c 0
 -16 181 -16 183 -14 186 c 2
EndSplineSet
EndChar

StartChar: uhungarumlaut
Encoding: 369 369 104
Width: 564
Flags: MW
HStem: -16 32<193.5 261 441.5 491> 332 20G<85 92 383.5 392.5> 502 161<190 223 190 223 255 287 190 255>
VStem: 72 32<177 274 274 274> 190 33<502 663 502 663> 255 32<502 663 502 663> 372 32<184 336>
LayerCount: 3
Fore
SplineSet
190 502 m 1
 190 663 l 1
 223 663 l 1
 223 502 l 1
 190 502 l 1
255 502 m 1
 255 663 l 1
 287 663 l 1
 287 502 l 1
 255 502 l 1
-14 186 m 2
 73 344 l 2
 76 350 82 352 88 352 c 0
 96 352 104 347 104 336 c 2
 104 177 l 2
 104 94 161 16 226 16 c 0
 316 16 372 96 372 184 c 2
 372 336 l 2
 372 345 379 352 388 352 c 0
 397 352 404 345 404 336 c 2
 404 133 l 2
 404 83 417 16 466 16 c 0
 537 16 545 70 564 70 c 0
 567 70 570 69 574 66 c 0
 578 62 581 58 581 53 c 0
 581 50 579 46 577 43 c 0
 542 0 516 -16 466 -16 c 0
 412 -16 387 27 377 75 c 1
 348 22 296 -16 226 -16 c 0
 139 -16 72 78 72 177 c 2
 72 274 l 1
 14 170 l 2
 11 164 5 161 0 161 c 0
 -8 161 -16 169 -16 178 c 0
 -16 181 -16 183 -14 186 c 2
EndSplineSet
EndChar

StartChar: udieresis
Encoding: 252 252 105
Width: 564
Flags: MW
HStem: -16 32<193.5 261 441.5 491> 332 20G<85 92 383.5 392.5> 467 64<189 196>
VStem: 72 32<177 274 274 274> 162 59<494.5 504.5> 253 59<495.5 507.5 495.5 507.5> 372 32<184 336>
LayerCount: 3
Fore
SplineSet
162 499 m 0
 162 510 167 522 179 528 c 0
 183 530 187 531 191 531 c 0
 208 531 221 515 221 498 c 0
 221 491 219 484 214 478 c 0
 208 470 200 467 192 467 c 0
 177 467 162 479 162 499 c 0
253 501 m 0
 253 514 260 525 270 530 c 0
 274 532 278 533 282 533 c 0
 299 533 312 516 312 499 c 0
 312 492 310 485 305 479 c 0
 299 471 291 468 283 468 c 0
 267 468 253 481 253 501 c 0
-14 186 m 2
 73 344 l 2
 76 350 82 352 88 352 c 0
 96 352 104 347 104 336 c 2
 104 177 l 2
 104 94 161 16 226 16 c 0
 316 16 372 96 372 184 c 2
 372 336 l 2
 372 345 379 352 388 352 c 0
 397 352 404 345 404 336 c 2
 404 133 l 2
 404 83 417 16 466 16 c 0
 537 16 545 70 564 70 c 0
 567 70 570 69 574 66 c 0
 578 62 581 58 581 53 c 0
 581 50 579 46 577 43 c 0
 542 0 516 -16 466 -16 c 0
 412 -16 387 27 377 75 c 1
 348 22 296 -16 226 -16 c 0
 139 -16 72 78 72 177 c 2
 72 274 l 1
 14 170 l 2
 11 164 5 161 0 161 c 0
 -8 161 -16 169 -16 178 c 0
 -16 181 -16 183 -14 186 c 2
EndSplineSet
EndChar

StartChar: minus
Encoding: 8722 8722 106
Width: 666
VWidth: 0
Flags: HW
LayerCount: 3
Back
SplineSet
50 333 m 31
 275 333 391 333 616 333 c 1052
EndSplineSet
Fore
SplineSet
33.5 333 m 0
 33.5 341.987322834 41.0126771663 349.5 50 349.5 c 2
 616 349.5 l 2
 624.987322834 349.5 632.5 341.987322834 632.5 333 c 0
 632.5 324.012677166 624.987322834 316.5 616 316.5 c 2
 50 316.5 l 2
 41.0126771663 316.5 33.5 324.012677166 33.5 333 c 0
EndSplineSet
EndChar

StartChar: germandbls
Encoding: 223 223 108
Width: 479
VWidth: 0
Flags: HW
LayerCount: 3
Back
SplineSet
0 150 m 4
 13.744140625 164.1796875 125 400 131 667 c 5
 131 -299 l 5
 130 118 131 250.032226562 131 358 c 7
 131 523.213867188 219.505859375 596 276 596 c 7
 407 596 490.237304688 336 173 336 c 5
 372.719726562 336 453 237.514648438 453 163 c 7
 453 -88.525390625 183.001953125 17.89453125 173 48 c 1029
EndSplineSet
Fore
SplineSet
114.058811454 32.6720409507 m 0
 114.058811454 183.428039703 114.503235476 242.412445568 114.503235476 358 c 2
 114.503235476 417.897587739 l 1
 93.9980022923 330.662640748 62.999254013 239.789426524 32.9269090173 175.848914446 c 0
 27.9262976819 165.21649953 23.6152129427 156.795571114 20.0915672217 150.587311964 c 0
 15.7714429462 142.975749057 11.1155342138 133.500294927 -0.0041625745266 133.500294927 c 0
 -9.11078062246 133.500294927 -16.5041998048 140.893714109 -16.5041998048 150.000332157 c 0
 -16.5041998048 154.460479845 -14.7307064489 158.509674666 -11.8510510978 161.480585259 c 2
 -6.61401207947 170.501787233 l 2
 21.3721805169 222.444696118 109.261740212 433.940213203 114.507431005 667.373453484 c 0
 114.701812748 676.023441049 122.178450672 683.493623946 130.993911133 683.493623946 c 0
 139.837696196 683.493623946 147.490279722 675.910904258 147.490279722 667.000073411 c 0
 147.490279722 666.875573075 147.490282229 666.751072739 147.490282911 666.525038495 c 0
 147.490282911 615.624514377 147.491308003 564.72399026 147.491308003 513.823466143 c 1
 158.930977346 536.529475647 172.646323303 555.248115671 187.487436447 570.089228815 c 0
 215.371889347 597.973681714 247.289759491 612.496764524 276 612.496764524 c 0
 350.481657038 612.496764524 409.157601835 542.317005083 409.157601835 469.985386993 c 0
 409.157601835 438.661798177 397.951771607 406.868119959 371.369826807 380.286175159 c 0
 353.570911707 362.487260059 329.570318948 347.757916757 298.624528501 337.258476241 c 1
 352.167668363 322.781345307 392.36927259 299.091074393 420.439988966 271.020358016 c 0
 453.578008274 237.882338709 469.496764524 198.876298918 469.496764524 163 c 0
 469.496764524 97.9880851344 452.110764829 52.7959156568 423.178750903 23.8639017304 c 0
 392.72622108 -6.58862809302 352.326307477 -16.6348367555 313.617841487 -16.6348367555 c 0
 272.518614937 -16.6348367555 236.094613842 -6.46822667917 207.61827746 5.47940550567 c 0
 189.035411144 13.2760984763 174.599416934 21.399813495 165.313067379 30.6861630497 c 0
 161.76198337 34.2372470588 156.496911912 39.9168808821 156.496911912 48.0151214101 c 0
 156.496911912 57.122501751 163.890949979 64.5165398185 172.99833032 64.5165398185 c 0
 179.793343391 64.5165398185 185.634599262 60.4005404558 188.155909466 54.5321342166 c 0
 191.913213796 50.386327435 203.788001804 42.879029646 220.41033935 35.9049030448 c 0
 245.29611114 25.4637408108 277.828750961 16.3622227281 313.523918621 16.3622227281 c 0
 346.488419889 16.3622227281 377.626006562 24.9802049474 399.844227124 47.1984255095 c 0
 420.893410119 68.2476085042 436.503235476 103.661850379 436.503235476 163 c 0
 436.503235476 188.936744174 424.799949605 219.99134982 397.105465187 247.685834237 c 0
 358.108112937 286.683186488 286.764532883 319.503235476 173 319.503235476 c 0
 163.895188208 319.503235476 156.503235476 326.895188208 156.503235476 336 c 0
 156.503235476 345.104811792 163.895188208 352.496764524 173 352.496764524 c 0
 265.499537048 352.496764524 319.768855507 375.354251417 348.035303027 403.620698938 c 0
 367.642677174 423.228073084 376.184951151 446.980331812 376.184951151 470.685957652 c 0
 376.184951151 523.84840599 331.137594972 579.503235476 276 579.503235476 c 0
 258.674046094 579.503235476 233.927245375 569.859990184 210.821960226 546.754705036 c 0
 177.397776461 513.33052127 147.496764524 452.379795752 147.496764524 358 c 0
 147.496764524 353.815847355 147.49243914 349.595976064 147.49243914 345.325229461 c 0
 147.49243914 130.550152974 147.496764524 -84.2249235131 147.496764524 -299.039863801 c 0
 147.496764524 -308.144675593 140.104811792 -315.536628325 131 -315.536628325 c 0
 121.895188208 -315.536628325 114.523775118 -308.144651023 114.503283274 -299.039863801 c 0
 114.190421156 -160.031237221 114.058811454 -52.6793025707 114.058811454 32.6720409507 c 0
EndSplineSet
EndChar

StartChar: slash
Encoding: 47 47 110
Width: 666
Flags: HW
LayerCount: 3
Back
SplineSet
166 50 m 29
 500 616 l 1053
EndSplineSet
Fore
SplineSet
166.007589931 33.5096442677 m 0
 156.899272489 33.5096442677 149.504473614 40.9044431429 149.504473614 50.0127605854 c 0
 149.504473614 53.0665689572 150.335727355 55.9277596875 151.784114909 58.3822128491 c 2
 485.784114909 624.382212849 l 2
 488.66153723 629.258323727 493.958916454 632.525765962 500.013425524 632.525765962 c 0
 509.121742967 632.525765962 516.516541842 625.130967087 516.516541842 616.022649644 c 0
 516.516541842 612.968841272 515.685288101 610.107650542 514.215885091 607.617787151 c 2
 180.215885091 41.6177871509 l 2
 177.359478226 36.7770865025 172.062099002 33.5096442677 166.007589931 33.5096442677 c 0
EndSplineSet
EndChar

StartChar: parenleft
Encoding: 40 40 111
Width: 666
Flags: HW
LayerCount: 3
Back
SplineSet
376 616 m 4
 215.262695312 374.896484375 219.380859375 277.602539062 376 50 c 1028
EndSplineSet
Fore
SplineSet
375.997066312 632.4963061 m 0
 385.105103648 632.4963061 392.499675113 625.101734635 392.499675113 615.993697299 c 0
 392.499675113 612.615570461 391.482454131 609.473153487 389.737870846 606.856305058 c 0
 318.694242156 500.291941091 281.636236169 423.765375969 274.70642344 354.040558276 c 0
 273.894527708 345.871609975 273.486683623 337.742642189 273.486683623 329.613016163 c 0
 273.486683623 251.568650916 311.073551515 173.463622182 389.602587585 59.3434199624 c 0
 391.430467857 56.6871022913 392.500845758 53.4698817333 392.500845758 50.00463382 c 0
 392.500845758 40.8967035849 385.106361246 33.5022190729 375.998431011 33.5022190729 c 0
 370.355748689 33.5022190729 365.370727479 36.3403976265 362.397412415 40.6565800376 c 0
 283.293036132 155.612879893 240.485955171 240.585762682 240.485955171 329.489019349 c 0
 240.485955171 338.713477772 240.946807757 347.980249824 241.875784636 357.327218645 c 0
 249.736641918 436.419809216 290.428153677 517.393822798 362.262129154 625.143694942 c 0
 365.215388701 629.569734979 370.267155813 632.4963061 375.997066312 632.4963061 c 0
EndSplineSet
EndChar

StartChar: parenright
Encoding: 41 41 112
Width: 666
Flags: HW
LayerCount: 3
Back
SplineSet
280 616 m 4
 440.737304688 374.896484375 436.619140625 277.602539062 280 50 c 1028
EndSplineSet
Fore
SplineSet
263.480631277 616.027041842 m 0
 263.480631277 625.135079179 270.875202741 632.529650643 279.983240078 632.529650643 c 0
 285.713150577 632.529650643 290.764917688 629.603079523 293.724044612 625.164434082 c 0
 365.571846323 517.393822798 406.263358082 436.419809216 414.124215364 357.327218645 c 0
 415.053192243 347.980249824 415.514044829 338.713477772 415.514044829 329.489019349 c 0
 415.514044829 240.585762682 372.706963868 155.612879893 293.586831915 40.6336835345 c 0
 290.610378872 36.3082334834 285.625357662 33.4700549298 279.98267534 33.4700549298 c 0
 270.874745105 33.4700549298 263.480260593 40.8645394418 263.480260593 49.9724696769 c 0
 263.480260593 53.4377175902 264.550638495 56.6549381482 266.397412415 59.3434199624 c 0
 344.926448485 173.463622182 382.513316377 251.568650916 382.513316377 329.613016163 c 0
 382.513316377 337.742642189 382.105472292 345.871609975 381.29357656 354.040558276 c 0
 374.363763831 423.765375969 337.305757844 500.291941091 266.262129154 606.856305058 c 0
 264.497852259 609.50649803 263.480631277 612.648915004 263.480631277 616.027041842 c 0
EndSplineSet
EndChar

StartChar: uni02CA
Encoding: 714 714 119
Width: 1000
Flags: HW
LayerCount: 3
Back
Fore
SplineSet
96.0008984607 389.501534205 m 4
 86.8930247455 389.501534205 79.4985861206 396.89597283 79.4985861206 406.003846545 c 4
 79.4985861206 409.511814879 80.5955252702 412.7656011 82.4648091478 415.440610787 c 6
 140.48144461 498.464416707 l 6
 143.465454684 502.73463802 148.417628541 505.529964806 154.017533923 505.529964806 c 4
 163.125407638 505.529964806 170.519846263 498.135526181 170.519846263 489.027652466 c 4
 170.519846263 485.519684132 169.422907114 482.265897911 167.535190852 479.559389213 c 6
 167.535190852 479.559389213 109.535190852 396.559389213 109.51855539 396.535583293 c 4
 106.5529777 392.296860991 101.600803842 389.501534205 96.0008984607 389.501534205 c 4
EndSplineSet
Layer: 2
SplineSet
96 406 m 29
 154 489 l 1053
EndSplineSet
EndChar

StartChar: uni0335
Encoding: 821 821 122
Width: 0
Flags: HW
LayerCount: 3
Back
Fore
SplineSet
152.001221619 441.502888403 m 2
 142.896408336 441.502888403 135.504452135 448.895187915 135.504452135 458.000001198 c 0
 135.504452135 467.068164748 142.837015977 474.437230797 151.891353791 474.496409475 c 2
 305.00287002 475.497138339 l 2
 314.107683303 475.497138339 321.499639593 468.104825285 321.499639593 459.000012002 c 0
 321.499639593 449.931848453 314.167075751 442.562782404 305.108646209 442.503590525 c 2
 152.001221619 441.502888403 l 2
EndSplineSet
Layer: 2
SplineSet
152 458 m 29
 305 459 l 1053
EndSplineSet
EndChar

StartChar: house
Encoding: 8962 8962 125
Width: 736
Flags: HW
LayerCount: 3
Back
Fore
SplineSet
673.496764524 284 m 0
 673.496764524 275.123829114 665.880601324 267.503235476 657 267.503235476 c 0
 652.107729959 267.503235476 647.136511238 269.917048422 644.107498558 273.70072979 c 2
 603.496764524 324.429496536 l 1
 603.496764524 0 l 2
 603.496764524 -8.87617088596 595.880601324 -16.4967645239 587 -16.4967645239 c 2
 208.627175621 -16.4967645239 l 1
 209.367384054 -110.503235476 l 1
 325 -110.503235476 l 2
 333.876170886 -110.503235476 341.496764524 -118.119398676 341.496764524 -127 c 2
 341.496764524 -215.503235476 l 1
 464 -215.503235476 l 2
 472.876170886 -215.503235476 480.496764524 -223.119398676 480.496764524 -232 c 2
 480.496764524 -315.636806139 l 1
 587.13514356 -316.50378483 l 2
 595.94114814 -316.575378363 603.496764524 -324.152771893 603.496764524 -333 c 0
 603.496764524 -341.875989953 595.880303287 -349.497313862 586.999995534 -349.497313862 c 2
 463.86485644 -348.49621517 l 2
 455.05885186 -348.424621637 447.503235476 -340.847228107 447.503235476 -332 c 2
 447.503235476 -248.496764524 l 1
 325 -248.496764524 l 2
 316.123829114 -248.496764524 308.503235476 -240.880601324 308.503235476 -232 c 2
 308.503235476 -143.496764524 l 1
 193 -143.496764524 l 2
 184.156171984 -143.496764524 176.573140099 -135.943331954 176.503750772 -127.130887363 c 2
 175.632615946 -16.4967645239 l 1
 141 -16.4967645239 l 2
 132.123829114 -16.4967645239 124.503235476 -8.8806013243 124.503235476 0 c 2
 124.503235476 320.983536157 l 1
 83.946978309 269.769149974 l 2
 80.9296613822 265.958886278 75.9244542655 263.503235476 71 263.503235476 c 0
 62.123829114 263.503235476 54.5032354761 271.119398676 54.5032354761 280 c 0
 54.5032354761 283.621203284 55.6864975477 287.242406569 58.053021691 290.230850026 c 2
 351.053021691 660.230850026 l 2
 354.070338618 664.041113722 359.075545735 666.496764524 364 666.496764524 c 0
 368.892270041 666.496764524 373.863488762 664.082951578 376.892501442 660.29927021 c 2
 669.892501442 294.29927021 l 2
 672.295343497 291.297767848 673.496764524 287.648883924 673.496764524 284 c 0
570.503235476 316.503235476 m 1
 157.496764524 316.503235476 l 1
 157.496764524 16.4967645239 l 1
 191.999999702 16.4967645239 l 1
 192 16.4967645239 l 1
 192.000000332 16.4967645239 l 1
 570.503235476 16.4967645239 l 1
 570.503235476 316.503235476 l 1
231.502150056 264.999987595 m 2
 231.502150056 273.87558276 239.119761222 281.496764524 248 281.496764524 c 0
 248.069262916 281.496620227 488.069262916 280.496620227 488.069262916 280.496620227 c 2
 496.862200086 280.459982989 504.394928799 272.955240603 504.495666528 264.191058153 c 2
 506.497862454 90.0000126199 l 2
 506.497862454 81.124424055 498.880234639 73.5032354761 490 73.5032354761 c 2
 371 73.5032354761 l 1
 250 73.5032354761 l 2
 241.170938948 73.5032354761 233.604683013 81.0283538438 233.504320961 89.8100334516 c 2
 231.502150056 264.999987595 l 2
583.429252173 349.496764524 m 1
 364.070216485 623.508392722 l 1
 147.082629831 349.496764524 l 1
 583.429252173 349.496764524 l 1
265.304376098 194.428973922 m 1
 353.306019006 194.06230041 l 1
 352.685276453 248.066902526 l 1
 264.687180814 248.433561258 l 1
 265.304376098 194.428973922 l 1
472.311718512 193.566443329 m 1
 471.690975959 247.571045444 l 1
 385.682581981 247.929413753 l 1
 386.303324534 193.924811637 l 1
 472.311718512 193.566443329 l 1
265.681466256 161.433585068 m 1
 266.309315634 106.496764524 l 1
 354.312519418 106.496764524 l 1
 353.685276453 161.066902526 l 1
 265.681466256 161.433585068 l 1
472.690975959 160.571045444 m 1
 386.682581981 160.929413753 l 1
 387.308244616 106.496764524 l 1
 473.312519418 106.496764524 l 1
 472.690975959 160.571045444 l 1
EndSplineSet
Layer: 2
SplineSet
192 0 m 29
 193 -127 l 29
 325 -127 l 29
 325 -232 l 29
 464 -232 l 29
 464 -332 l 29
 587 -333 l 1053
369 264 m 5
 371 90 l 1029
249 178 m 5
 489 177 l 1029
248 265 m 29
 250 90 l 29
 490 90 l 29
 488 264 l 29
 248 265 l 29
141 333 m 29
 587 333 l 29
 587 0 l 29
 141 0 l 29
 141 333 l 29
71 280 m 29
 364 650 l 5
 657 284 l 1053
EndSplineSet
EndChar
